<?xml version="1.0" standalone="no"?>
<!DOCTYPE svg PUBLIC "-//W3C//DTD SVG 20010904//EN"
 "http://www.w3.org/TR/2001/REC-SVG-20010904/DTD/svg10.dtd">
<svg version="1.0" xmlns="http://www.w3.org/2000/svg"
 width="525.000000pt" height="221.000000pt" viewBox="0 0 525.000000 221.000000"
 preserveAspectRatio="xMidYMid meet">

<g transform="translate(0.000000,221.000000) scale(0.100000,-0.100000)"
fill="#000000" stroke="none">
<path d="M803 1815 c-81 -23 -120 -41 -189 -91 -157 -111 -243 -280 -244 -476
0 -157 47 -266 164 -384 129 -129 244 -171 434 -162 154 8 272 60 381 169 165
164 196 412 81 646 -92 187 -265 296 -489 308 -59 4 -103 0 -138 -10z m158
-28 c2 -22 2 -22 6 1 5 26 9 26 92 7 204 -49 367 -218 411 -430 14 -65 16
-175 5 -224 -7 -31 -35 -44 -35 -16 0 16 -25 21 -34 6 -3 -5 9 -15 28 -22 33
-14 34 -15 21 -44 l-13 -30 -1 28 c-1 19 -6 27 -19 27 -26 0 -34 -11 -21 -26
6 -8 9 -21 5 -30 -4 -12 -1 -14 14 -9 25 8 26 -10 3 -24 -10 -6 -14 -11 -10
-11 13 0 -13 -40 -56 -87 -22 -24 -46 -42 -53 -39 -8 3 -11 0 -8 -8 6 -16 -83
-77 -153 -105 -145 -57 -334 -49 -465 21 -67 35 -188 141 -188 164 0 8 -4 14
-9 14 -22 0 -80 145 -91 223 -12 97 8 267 32 267 5 0 6 4 3 10 -12 20 94 190
119 190 5 0 24 -12 40 -27 l31 -28 -27 31 c-16 16 -28 35 -28 41 0 11 95 80
150 108 59 31 112 43 183 43 62 0 67 -2 68 -21z"/>
<path d="M785 1743 c2 -21 8 -39 15 -41 9 -3 11 1 7 12 -4 10 -7 29 -7 42 0
13 -4 24 -8 24 -5 0 -8 -17 -7 -37z"/>
<path d="M824 1765 c-9 -23 4 -34 36 -32 35 2 35 1 13 27 -20 24 -41 26 -49 5z"/>
<path d="M1012 1746 c-12 -28 -7 -36 23 -36 18 0 22 5 21 30 -1 37 -28 41 -44
6z"/>
<path d="M1077 1746 c-7 -18 11 -36 29 -29 21 8 17 43 -5 43 -10 0 -21 -6 -24
-14z"/>
<path d="M1136 1714 c-24 -51 -12 -55 14 -5 11 23 17 41 12 41 -5 0 -16 -16
-26 -36z"/>
<path d="M737 1728 c-7 -23 5 -48 23 -48 17 0 17 2 4 30 -17 33 -20 36 -27 18z"/>
<path d="M896 1706 c-10 -16 -12 -27 -6 -31 6 -3 13 2 16 12 17 52 15 56 -10
19z"/>
<path d="M930 1693 c-3 -23 -2 -39 3 -34 5 5 7 24 5 42 -3 33 -4 33 -8 -8z"/>
<path d="M665 1701 c-9 -16 3 -31 26 -31 14 0 19 6 17 17 -4 20 -33 29 -43 14z"/>
<path d="M1172 1669 c-16 -26 -10 -34 15 -20 10 6 14 11 9 11 -5 0 -3 7 4 15
10 12 10 15 -1 15 -8 0 -20 -9 -27 -21z"/>
<path d="M1038 1673 c7 -3 16 -2 19 1 4 3 -2 6 -13 5 -11 0 -14 -3 -6 -6z"/>
<path d="M621 1652 c-8 -14 -5 -22 9 -35 17 -15 21 -15 35 -1 16 17 21 39 6
29 -5 -3 -16 2 -25 10 -13 14 -16 14 -25 -3z"/>
<path d="M948 1630 c-3 -16 -1 -30 4 -30 4 0 8 14 8 30 0 17 -2 30 -4 30 -2 0
-6 -13 -8 -30z"/>
<path d="M984 1648 c-4 -6 -8 -21 -9 -33 -2 -18 1 -21 22 -17 16 3 22 9 18 20
-3 8 0 21 6 28 9 11 7 14 -9 14 -12 0 -24 -5 -28 -12z"/>
<path d="M1101 1656 c2 -2 15 -9 29 -15 24 -11 24 -11 6 3 -16 13 -49 24 -35
12z"/>
<path d="M815 1640 l-40 -7 43 -2 c23 0 42 4 42 9 0 6 -1 9 -2 9 -2 -1 -21 -5
-43 -9z"/>
<path d="M1060 1630 c0 -11 -4 -20 -10 -20 -5 0 -7 -7 -4 -15 4 -9 14 -14 23
-13 9 2 15 -2 14 -9 -1 -6 5 -14 15 -18 9 -3 13 -3 9 1 -11 11 36 46 55 41 25
-7 31 8 11 24 -12 10 -14 10 -9 2 5 -9 0 -13 -15 -13 -12 0 -31 -7 -41 -16
-16 -16 -18 -16 -24 0 -3 9 -1 22 5 30 9 11 8 15 -5 20 -23 9 -24 8 -24 -14z"/>
<path d="M1229 1623 c5 -25 6 -26 9 -6 2 13 12 23 25 26 16 3 13 5 -9 6 -29 1
-31 -1 -25 -26z"/>
<path d="M1279 1613 l-24 -28 28 24 c25 23 32 31 24 31 -2 0 -14 -12 -28 -27z"/>
<path d="M878 1623 c7 -3 16 -2 19 1 4 3 -2 6 -13 5 -11 0 -14 -3 -6 -6z"/>
<path d="M549 1594 c-11 -13 -10 -17 2 -25 34 -21 56 5 25 30 -10 9 -16 7 -27
-5z"/>
<path d="M690 1595 c-11 -13 -10 -14 4 -9 9 3 16 10 16 15 0 13 -6 11 -20 -6z"/>
<path d="M745 1574 c-9 -22 -19 -33 -26 -28 -8 5 -10 2 -5 -7 4 -8 1 -6 -7 4
-14 17 -15 17 -19 -1 -6 -20 8 -35 35 -40 15 -3 17 1 12 19 -5 16 -4 19 5 14
9 -5 11 -4 6 3 -5 8 3 12 25 12 25 0 29 3 20 14 -6 7 -9 21 -5 30 13 34 -26
15 -41 -20z"/>
<path d="M813 1594 c-7 -18 11 -39 26 -30 17 11 13 46 -4 46 -9 0 -18 -7 -22
-16z"/>
<path d="M1320 1591 c-8 -6 -17 -8 -20 -6 -3 2 -6 -11 -5 -28 0 -23 4 -31 15
-28 8 2 21 4 28 4 6 0 10 3 7 5 -3 3 1 10 8 16 7 6 11 10 9 9 -8 -4 -30 22
-25 30 6 9 1 9 -17 -2z"/>
<path d="M877 1578 c-2 -8 1 -22 9 -32 11 -16 16 -17 29 -6 8 7 15 21 15 32 0
16 -3 18 -13 9 -9 -7 -17 -7 -24 0 -7 7 -12 6 -16 -3z"/>
<path d="M1210 1587 c0 -2 14 -16 32 -33 31 -29 31 -29 12 -2 -16 23 -44 45
-44 35z"/>
<path d="M634 1548 l-29 -33 33 29 c30 28 37 36 29 36 -2 0 -16 -15 -33 -32z"/>
<path d="M1012 1575 c4 -5 2 -15 -5 -24 -10 -14 -10 -14 5 -3 9 8 22 11 28 7
5 -3 10 -4 10 -1 0 3 -10 11 -22 17 -13 6 -20 8 -16 4z"/>
<path d="M510 1562 c0 -15 38 -44 49 -37 18 10 13 21 -14 33 -31 14 -35 15
-35 4z"/>
<path d="M951 1539 c-20 -27 -21 -29 -2 -18 11 7 22 21 24 31 7 24 4 23 -22
-13z"/>
<path d="M1120 1540 c-9 -6 -10 -10 -3 -10 6 0 15 5 18 10 8 12 4 12 -15 0z"/>
<path d="M1145 1529 c-12 -19 5 -23 22 -6 16 16 16 17 1 17 -9 0 -20 -5 -23
-11z"/>
<path d="M1210 1525 c-7 -8 -19 -15 -26 -15 -15 0 -19 -16 -6 -24 9 -5 57 42
50 50 -3 2 -11 -2 -18 -11z"/>
<path d="M490 1522 c0 -11 41 -34 48 -28 3 4 -3 13 -14 21 -21 16 -34 19 -34
7z"/>
<path d="M756 1507 c3 -10 9 -15 12 -12 3 3 0 11 -7 18 -10 9 -11 8 -5 -6z"/>
<path d="M1008 1507 c-19 -15 -7 -47 18 -47 8 0 13 4 10 9 -3 5 1 14 9 21 30
25 -5 41 -37 17z"/>
<path d="M1110 1516 c0 -2 8 -10 18 -17 15 -13 16 -12 3 4 -13 16 -21 21 -21
13z"/>
<path d="M1270 1516 c0 -2 8 -10 18 -17 15 -13 16 -12 3 4 -13 16 -21 21 -21
13z"/>
<path d="M640 1502 c0 -10 22 -32 32 -32 15 0 8 15 -12 28 -11 7 -20 9 -20 4z"/>
<path d="M832 1490 c0 -14 2 -19 5 -12 2 6 2 18 0 25 -3 6 -5 1 -5 -13z"/>
<path d="M1351 1499 c-17 -6 -21 -13 -14 -20 7 -7 18 -6 36 2 49 22 28 38 -22
18z"/>
<path d="M472 1489 c4 -9 2 -21 -4 -27 -8 -8 -5 -9 10 -6 13 4 21 1 24 -9 2
-12 6 -12 19 2 16 15 15 17 -10 36 -20 15 -23 15 -12 2 18 -22 7 -22 -15 1
-15 15 -17 15 -12 1z"/>
<path d="M583 1488 c-20 -26 -24 -42 -5 -18 18 22 22 23 39 10 16 -14 17 -14
4 3 -16 20 -25 21 -38 5z"/>
<path d="M962 1487 c-8 -10 -5 -16 11 -27 20 -12 21 -12 9 3 -8 9 -11 21 -7
27 9 14 0 13 -13 -3z"/>
<path d="M1210 1492 c0 -6 -3 -19 -6 -29 -5 -17 -5 -17 10 1 8 10 22 16 31 13
8 -4 15 -2 15 3 0 6 -4 10 -9 10 -5 0 -16 3 -25 6 -9 3 -16 2 -16 -4z"/>
<path d="M1064 1475 c-7 -18 3 -35 21 -35 18 0 26 25 12 39 -15 15 -27 14 -33
-4z"/>
<path d="M1290 1470 c-12 -7 -10 -9 7 -7 12 0 19 5 17 9 -6 10 -6 10 -24 -2z"/>
<path d="M594 1454 c3 -9 6 -20 6 -25 0 -13 38 -11 46 3 5 8 0 9 -14 6 -17 -5
-22 -2 -22 13 0 10 -5 19 -11 19 -6 0 -8 -7 -5 -16z"/>
<path d="M640 1466 c0 -2 8 -10 18 -17 15 -13 16 -12 3 4 -13 16 -21 21 -21
13z"/>
<path d="M807 1454 c-8 -8 3 -34 14 -34 11 0 12 27 0 34 -4 3 -11 3 -14 0z"/>
<path d="M1373 1444 c-8 -21 13 -42 28 -27 13 13 5 43 -11 43 -6 0 -13 -7 -17
-16z"/>
<path d="M745 1428 c4 -12 12 -30 17 -38 7 -12 8 -10 5 6 -4 18 -1 21 17 16
24 -6 22 -3 -17 22 l-29 18 7 -24z"/>
<path d="M867 1443 c-11 -10 -8 -43 3 -43 6 0 10 11 10 25 0 26 -2 29 -13 18z"/>
<path d="M1023 1422 c20 -21 24 -31 16 -39 -9 -9 -6 -10 10 -6 22 6 22 6 -10
39 -18 19 -35 34 -38 34 -3 0 7 -13 22 -28z"/>
<path d="M1191 1433 c7 -12 16 -19 19 -15 3 4 10 11 15 15 6 5 3 7 -6 4 -9 -3
-22 0 -29 6 -9 8 -8 5 1 -10z"/>
<path d="M671 1417 c-13 -21 -12 -21 5 -5 10 10 16 20 13 22 -3 3 -11 -5 -18
-17z"/>
<path d="M842 1420 c0 -14 2 -19 5 -12 2 6 2 18 0 25 -3 6 -5 1 -5 -13z"/>
<path d="M918 1433 c-25 -6 -23 -43 2 -43 11 0 20 4 20 9 0 5 3 16 6 25 6 16
3 17 -28 9z"/>
<path d="M1135 1429 c-4 -6 -12 -8 -19 -6 -7 3 -13 -3 -13 -13 -2 -23 23 -34
31 -13 4 9 13 13 22 9 12 -5 15 -2 10 10 -3 8 -6 18 -6 20 0 8 -19 4 -25 -7z"/>
<path d="M1244 1425 c-10 -8 -14 -15 -7 -15 19 0 43 11 43 21 0 13 -14 11 -36
-6z"/>
<path d="M450 1405 c0 -7 7 -12 15 -11 24 4 27 13 5 19 -13 3 -20 0 -20 -8z"/>
<path d="M535 1409 c-4 -6 -5 -12 -2 -15 2 -3 7 2 10 11 7 17 1 20 -8 4z"/>
<path d="M965 1399 c-5 -13 -2 -24 6 -29 20 -13 40 1 37 24 -4 29 -35 33 -43
5z"/>
<path d="M595 1391 c17 -10 34 -15 39 -10 13 11 8 15 -34 23 l-35 6 30 -19z"/>
<path d="M1296 1394 c-4 -9 -13 -14 -22 -10 -8 3 -12 2 -9 -4 3 -6 1 -10 -4
-10 -6 0 -11 -4 -11 -10 0 -14 29 -12 43 3 12 12 22 47 14 47 -3 0 -8 -7 -11
-16z"/>
<path d="M680 1390 c0 -4 12 -11 26 -14 18 -5 24 -11 20 -23 -5 -13 -4 -14 9
-3 22 18 19 24 -20 36 -19 6 -35 8 -35 4z"/>
<path d="M646 1374 c-4 -9 -4 -19 -1 -22 3 -3 5 0 5 6 0 6 8 9 18 6 10 -4 13
-2 7 3 -5 4 -13 12 -16 16 -4 4 -9 0 -13 -9z"/>
<path d="M839 1363 c5 -18 14 -28 26 -28 27 0 29 21 3 29 -19 5 -20 8 -8 16
12 8 11 10 -7 10 -18 0 -20 -4 -14 -27z"/>
<path d="M447 1343 c20 -12 40 -20 42 -17 3 3 -3 10 -14 16 -19 11 -19 11 0
19 13 5 6 7 -23 6 l-42 -1 37 -23z"/>
<path d="M590 1361 c0 -5 9 -13 20 -16 26 -8 27 -39 1 -32 -14 3 -18 1 -14 -9
4 -10 10 -11 24 -3 23 12 24 32 3 53 -17 18 -34 21 -34 7z"/>
<path d="M762 1350 c-12 -10 -19 -21 -15 -23 5 -3 16 6 26 19 21 29 19 30 -11
4z"/>
<path d="M1010 1358 c0 -5 -4 -6 -10 -3 -5 3 -7 0 -4 -9 3 -8 12 -17 20 -20 8
-3 14 -13 14 -21 0 -14 2 -15 14 -2 19 18 10 54 -15 60 -10 3 -19 1 -19 -5z"/>
<path d="M1128 1363 c-10 -2 -15 -10 -11 -19 7 -19 23 -18 23 1 0 8 5 15 10
15 6 0 10 -4 10 -10 0 -5 5 -10 10 -10 6 0 10 7 10 15 0 15 -17 17 -52 8z"/>
<path d="M1410 1354 c0 -9 5 -14 12 -12 18 6 21 28 4 28 -9 0 -16 -7 -16 -16z"/>
<path d="M921 1333 c7 -12 15 -20 18 -17 3 2 -3 12 -13 22 -17 16 -18 16 -5
-5z"/>
<path d="M1220 1333 c0 -17 4 -20 22 -15 16 4 18 7 8 10 -8 3 -18 10 -22 16
-5 6 -8 2 -8 -11z"/>
<path d="M510 1336 c0 -26 56 -76 85 -76 17 0 1 21 -20 26 -14 3 -34 18 -45
31 -11 14 -20 23 -20 19z"/>
<path d="M1332 1333 c24 -4 27 -9 31 -51 l3 -47 2 53 2 52 -32 -1 c-30 -2 -30
-2 -6 -6z"/>
<path d="M665 1305 c0 -17 3 -21 12 -13 7 5 16 7 21 5 4 -3 14 -1 22 4 13 8
13 10 0 19 -10 6 -16 6 -18 0 -2 -6 -10 -6 -20 -1 -14 7 -17 4 -17 -14z"/>
<path d="M424 1306 c22 -18 46 -21 46 -6 0 6 -6 10 -14 10 -8 0 -23 3 -33 6
-16 5 -16 4 1 -10z"/>
<path d="M816 1309 c5 -8 -6 -10 -35 -7 -22 2 -41 0 -41 -4 0 -9 71 -11 94 -2
23 9 20 24 -5 24 -12 0 -18 -4 -13 -11z"/>
<path d="M967 1313 c-14 -14 -6 -34 18 -43 15 -6 23 -15 19 -23 -7 -19 48 -28
64 -10 10 10 3 15 -29 23 -27 7 -39 16 -36 24 9 22 -21 45 -36 29z"/>
<path d="M1386 1313 c-15 -16 -3 -23 39 -23 57 0 63 24 6 27 -21 1 -41 -1 -45
-4z"/>
<path d="M1130 1296 c-5 -5 -10 -13 -10 -16 0 -10 60 1 67 13 3 6 1 7 -5 3 -7
-4 -12 -3 -12 2 0 12 -27 11 -40 -2z"/>
<path d="M1260 1285 c0 -18 4 -25 13 -21 6 3 20 9 30 12 25 9 15 28 -16 32
-23 3 -27 0 -27 -23z"/>
<path d="M878 1288 c-8 -21 2 -38 22 -38 22 0 33 23 17 39 -15 15 -34 14 -39
-1z"/>
<path d="M941 1274 c0 -11 3 -14 6 -6 3 7 2 16 -1 19 -3 4 -6 -2 -5 -13z"/>
<path d="M502 1250 c0 -19 2 -27 5 -17 2 9 2 25 0 35 -3 9 -5 1 -5 -18z"/>
<path d="M800 1268 c0 -4 -6 -8 -14 -8 -9 0 -12 -7 -9 -20 5 -19 6 -20 19 -3
7 10 14 14 14 10 0 -9 30 18 30 27 0 2 -9 4 -20 3 -11 -1 -20 -5 -20 -9z"/>
<path d="M1222 1250 c0 -19 2 -27 5 -17 2 9 2 25 0 35 -3 9 -5 1 -5 -18z"/>
<path d="M410 1250 c0 -16 5 -21 23 -18 12 2 22 10 22 18 0 8 -10 16 -22 18
-18 3 -23 -2 -23 -18z"/>
<path d="M1391 1256 c-10 -11 -8 -16 8 -21 26 -8 42 1 34 20 -7 19 -27 19 -42
1z"/>
<path d="M665 1250 l-40 -7 53 -2 c29 0 52 3 52 9 0 11 -5 11 -65 0z"/>
<path d="M741 1244 c0 -11 3 -14 6 -6 3 7 2 16 -1 19 -3 4 -6 -2 -5 -13z"/>
<path d="M860 1254 c0 -13 -70 -67 -87 -67 -9 0 -10 -4 -4 -10 9 -9 75 31 92
56 4 5 9 3 11 -4 3 -8 8 -12 11 -9 3 3 -1 14 -9 24 -8 11 -14 16 -14 10z"/>
<path d="M1134 1239 c-19 -22 -19 -22 6 -9 17 9 25 10 28 1 2 -6 8 -11 13 -11
6 0 5 8 -1 20 -14 25 -22 25 -46 -1z"/>
<path d="M540 1223 c0 -20 3 -22 19 -13 14 7 22 7 27 -1 4 -8 9 -7 15 2 14 23
11 27 -26 31 -31 4 -35 1 -35 -19z"/>
<path d="M922 1234 c-7 -8 -8 -14 -3 -14 10 0 25 19 20 25 -2 1 -10 -3 -17
-11z"/>
<path d="M1277 1234 c-16 -16 -6 -35 16 -32 12 2 22 10 22 18 0 16 -26 25 -38
14z"/>
<path d="M450 1205 c-6 -7 -19 -11 -27 -8 -13 5 -14 3 -5 -13 6 -11 22 -19 36
-19 20 -1 26 4 26 21 0 29 -14 38 -30 19z"/>
<path d="M663 1204 c-3 -8 -1 -20 5 -26 15 -15 43 8 35 28 -7 19 -32 18 -40
-2z"/>
<path d="M991 1206 c-10 -12 -9 -18 6 -33 16 -16 27 -18 68 -14 6 1 11 11 12
24 2 21 1 21 -12 -3 -13 -22 -20 -21 -16 3 0 4 -6 7 -14 7 -7 0 -18 7 -23 16
-8 13 -10 14 -21 0z"/>
<path d="M1350 1212 c0 -4 18 -6 40 -4 22 2 40 6 40 8 0 2 -18 4 -40 4 -22 0
-40 -3 -40 -8z"/>
<path d="M825 1180 c-16 -16 -31 -27 -35 -25 -5 3 -11 -2 -14 -11 -3 -9 -2
-12 5 -9 5 4 18 1 27 -7 15 -11 15 -11 5 3 -9 11 -10 18 -1 27 8 8 16 5 29
-11 16 -18 20 -20 28 -7 5 8 7 18 5 22 -3 4 2 8 10 8 24 0 19 15 -8 28 -20 9
-27 7 -51 -18z m37 -5 c4 -21 3 -23 -14 -14 -15 8 -17 13 -7 25 15 18 16 18
21 -11z"/>
<path d="M1116 1195 c-7 -18 6 -30 37 -32 20 -1 27 3 27 16 0 22 -56 35 -64
16z"/>
<path d="M1415 1191 c-6 -11 9 -23 19 -14 9 9 7 23 -3 23 -6 0 -12 -4 -16 -9z"/>
<path d="M574 1176 c-28 -15 -19 -36 17 -36 30 0 34 6 23 34 -7 18 -11 18 -40
2z"/>
<path d="M920 1170 c0 -11 2 -20 4 -20 2 0 6 9 9 20 3 11 1 20 -4 20 -5 0 -9
-9 -9 -20z"/>
<path d="M1255 1180 c-12 -4 -15 -9 -7 -14 6 -3 9 -13 6 -21 -4 -9 1 -13 14
-12 12 0 19 4 16 8 -2 4 1 9 8 11 10 4 9 8 -2 20 -9 9 -23 12 -35 8z"/>
<path d="M510 1166 c0 -8 -6 -17 -12 -19 -8 -3 -6 -6 5 -6 11 -1 17 6 17 19 0
11 -2 20 -5 20 -3 0 -5 -6 -5 -14z"/>
<path d="M716 1165 c-3 -8 -13 -15 -21 -15 -15 0 -15 -1 0 -16 13 -14 21 -15
41 -5 21 9 23 14 14 31 -13 24 -26 26 -34 5z"/>
<path d="M950 1163 c0 -14 19 -38 25 -32 8 8 -5 39 -16 39 -5 0 -9 -3 -9 -7z"/>
<path d="M1375 1161 c-6 -11 9 -23 19 -14 9 9 7 23 -3 23 -6 0 -12 -4 -16 -9z"/>
<path d="M640 1146 c0 -8 4 -17 9 -20 5 -4 7 3 4 14 -6 23 -13 26 -13 6z"/>
<path d="M438 1133 c7 -3 16 -2 19 1 4 3 -2 6 -13 5 -11 0 -14 -3 -6 -6z"/>
<path d="M921 1124 c0 -11 3 -14 6 -6 3 7 2 16 -1 19 -3 4 -6 -2 -5 -13z"/>
<path d="M1029 1123 c-13 -16 -12 -17 4 -4 9 7 17 15 17 17 0 8 -8 3 -21 -13z"/>
<path d="M1066 1133 c-15 -15 -5 -35 14 -30 15 4 20 1 18 -11 -2 -11 4 -17 17
-17 33 0 25 37 -11 51 -18 7 -34 10 -38 7z"/>
<path d="M520 1125 c0 -5 5 -17 10 -25 5 -8 10 -10 10 -5 0 6 -5 17 -10 25 -5
8 -10 11 -10 5z"/>
<path d="M1235 1110 c10 -11 25 -19 34 -19 13 1 13 2 -1 6 -10 2 -18 8 -18 13
0 4 -8 11 -17 14 -15 6 -15 4 2 -14z"/>
<path d="M450 1111 c0 -18 18 -21 30 -6 10 13 9 15 -9 15 -11 0 -21 -4 -21 -9z"/>
<path d="M720 1095 l-24 -26 -19 23 c-15 18 -16 19 -9 3 6 -11 25 -33 44 -50
19 -17 24 -20 11 -5 l-23 24 27 28 c15 15 24 28 22 28 -3 0 -16 -11 -29 -25z"/>
<path d="M1166 1104 c-5 -14 -4 -15 8 -5 8 7 20 9 27 5 8 -5 7 -9 -5 -16 -9
-5 -16 -18 -16 -29 0 -13 4 -18 12 -13 6 4 16 0 23 -9 10 -13 13 -12 22 14 8
20 8 31 1 36 -7 4 -8 1 -3 -7 5 -8 3 -11 -4 -9 -7 3 -11 7 -9 10 5 9 -23 39
-37 39 -7 0 -16 -7 -19 -16z"/>
<path d="M613 1103 c-18 -4 -55 -33 -41 -33 9 0 68 31 68 36 0 2 -1 3 -2 3 -2
-1 -13 -4 -25 -6z"/>
<path d="M757 1096 c-8 -20 20 -43 35 -28 14 14 3 42 -16 42 -7 0 -16 -6 -19
-14z"/>
<path d="M1299 1088 c-9 -19 -9 -21 2 -10 7 6 22 12 32 12 16 0 17 -3 7 -15
-6 -8 -9 -19 -5 -26 6 -8 2 -8 -14 0 -11 7 -21 9 -21 7 0 -3 14 -13 31 -22 17
-8 28 -11 25 -5 -4 6 0 11 8 11 9 0 16 8 16 18 0 16 -15 27 -62 49 -4 2 -12
-7 -19 -19z"/>
<path d="M1020 1080 c0 -5 7 -10 15 -10 9 0 15 -9 16 -22 l0 -23 12 23 c8 19
8 25 -4 33 -19 12 -39 11 -39 -1z"/>
<path d="M813 1068 c-23 -30 -24 -41 -2 -21 12 12 20 25 17 28 -3 3 -10 0 -15
-7z"/>
<path d="M616 1061 c-4 -6 -4 -11 1 -11 4 0 1 -5 -7 -10 -11 -7 -11 -10 -2
-10 7 0 10 -4 7 -10 -4 -6 5 -9 19 -8 15 1 26 6 26 9 0 4 3 15 6 23 5 12 2 15
-11 10 -9 -4 -20 -1 -25 6 -5 8 -9 9 -14 1z"/>
<path d="M1264 1049 c0 -13 3 -15 13 -7 7 6 13 12 13 13 0 2 -6 5 -13 8 -7 3
-13 -3 -13 -14z"/>
<path d="M970 1045 c0 -18 -11 -19 -30 -2 -8 6 -5 1 6 -13 12 -14 24 -32 27
-40 3 -8 6 4 6 28 1 23 -1 42 -4 42 -3 0 -5 -7 -5 -15z"/>
<path d="M1000 1051 c0 -5 7 -14 15 -21 12 -10 15 -10 15 3 0 8 -7 17 -15 21
-8 3 -15 2 -15 -3z"/>
<path d="M1104 1038 l-19 -23 23 19 c21 18 27 26 19 26 -2 0 -12 -10 -23 -22z"/>
<path d="M483 1035 c3 -7 1 -17 -4 -22 -6 -6 -4 -14 6 -23 11 -9 15 -9 15 -1
0 7 5 9 10 6 6 -3 10 5 10 18 0 17 -7 26 -21 30 -14 4 -19 2 -16 -8z"/>
<path d="M850 1040 c13 -9 13 -11 0 -20 -13 -9 -7 -14 13 -11 4 0 7 -4 7 -9 0
-6 6 -6 13 2 22 20 9 48 -22 48 -20 0 -23 -2 -11 -10z"/>
<path d="M1157 1016 c-8 -20 20 -43 35 -28 14 14 3 42 -16 42 -7 0 -16 -6 -19
-14z"/>
<path d="M1239 1003 c-13 -16 -12 -17 4 -4 9 7 17 15 17 17 0 8 -8 3 -21 -13z"/>
<path d="M1318 995 c2 -14 9 -25 14 -25 5 0 6 6 1 13 -4 6 5 4 20 -6 18 -12
26 -13 25 -5 -3 11 -50 48 -62 48 -2 0 -1 -11 2 -25z"/>
<path d="M549 989 l-24 -20 28 17 28 17 52 -49 52 -49 -50 53 c-27 28 -52 52
-56 52 -4 0 -17 -9 -30 -21z"/>
<path d="M667 996 c-8 -20 20 -43 35 -28 14 14 3 42 -16 42 -7 0 -16 -6 -19
-14z"/>
<path d="M730 970 c0 -11 -5 -20 -12 -20 -9 0 -9 -3 -1 -11 7 -7 19 -8 30 -3
10 4 23 8 28 9 6 0 16 4 24 9 14 9 14 2 -4 -49 l-7 -20 13 20 c7 11 17 23 23
27 6 4 6 11 -2 21 -7 7 -9 16 -6 19 2 3 -2 8 -10 11 -10 4 -13 1 -10 -7 9 -23
-12 -27 -31 -6 -23 25 -35 25 -35 0z"/>
<path d="M1098 971 c-2 -9 -12 -16 -23 -16 -13 0 -19 -5 -16 -15 2 -8 4 -22 5
-31 0 -10 7 -14 23 -11 19 3 20 7 10 23 -18 29 6 48 31 26 17 -15 21 -16 31
-3 10 12 8 16 -8 21 -12 3 -21 10 -21 14 0 15 -29 7 -32 -8z"/>
<path d="M1184 939 c-20 -22 -23 -28 -8 -19 18 11 50 50 41 50 -2 0 -16 -14
-33 -31z"/>
<path d="M1285 960 c-3 -6 6 -15 20 -20 40 -15 50 -12 30 10 -20 22 -40 26
-50 10z"/>
<path d="M570 946 c0 -8 -8 -17 -17 -19 -11 -3 -7 -5 10 -6 21 -1 27 4 27 19
0 11 -4 20 -10 20 -5 0 -10 -6 -10 -14z"/>
<path d="M883 915 c0 -22 2 -30 4 -17 2 12 2 30 0 40 -3 9 -5 -1 -4 -23z"/>
<path d="M845 928 c-10 -34 -11 -68 -2 -65 10 3 22 77 12 77 -3 0 -7 -6 -10
-12z"/>
<path d="M759 913 c-13 -16 -12 -17 4 -4 9 7 17 15 17 17 0 8 -8 3 -21 -13z"/>
<path d="M968 905 c2 -14 6 -25 8 -25 2 0 4 11 4 25 0 14 -4 25 -9 25 -4 0 -6
-11 -3 -25z"/>
<path d="M1006 915 c4 -8 10 -12 15 -9 14 8 10 24 -6 24 -9 0 -12 -6 -9 -15z"/>
<path d="M1210 926 c0 -2 8 -10 18 -17 15 -13 16 -12 3 4 -13 16 -21 21 -21
13z"/>
<path d="M1279 910 c13 -11 30 -20 38 -20 11 0 7 7 -10 20 -33 26 -60 26 -28
0z"/>
<path d="M629 908 c-1 -7 -1 -18 0 -25 1 -7 -7 -9 -19 -6 -15 4 -20 0 -20 -15
0 -34 17 -35 50 -4 35 34 36 38 10 52 -15 8 -20 8 -21 -2z"/>
<path d="M900 911 c0 -5 6 -12 13 -15 9 -5 9 -7 -1 -12 -17 -8 -5 -24 19 -24
21 0 26 15 7 24 -10 5 -10 7 0 12 21 10 13 24 -13 24 -14 0 -25 -4 -25 -9z"/>
<path d="M1250 896 c0 -2 8 -10 18 -17 15 -13 16 -12 3 4 -13 16 -21 21 -21
13z"/>
<path d="M720 886 c0 -2 7 -7 16 -10 8 -3 12 -2 9 4 -6 10 -25 14 -25 6z"/>
<path d="M1193 871 c0 -11 5 -18 9 -15 4 3 13 -4 20 -15 11 -17 13 -18 23 -4
10 13 8 20 -7 35 -24 24 -47 23 -45 -1z"/>
<path d="M1080 865 c-14 -8 -20 -14 -14 -15 5 0 19 7 30 15 24 18 16 19 -16 0z"/>
<path d="M1140 867 c0 -10 32 -67 41 -73 19 -12 20 4 1 37 -15 28 -42 51 -42
36z"/>
<path d="M816 835 c4 -8 8 -15 10 -15 2 0 4 7 4 15 0 8 -4 15 -10 15 -5 0 -7
-7 -4 -15z"/>
<path d="M667 826 c-7 -17 18 -40 33 -31 5 3 10 15 10 26 0 23 -35 27 -43 5z"/>
<path d="M744 807 c0 -41 23 -46 37 -9 7 18 6 28 -3 34 -24 15 -34 8 -34 -25z"/>
<path d="M858 833 c6 -2 18 -2 25 0 6 3 1 5 -13 5 -14 0 -19 -2 -12 -5z"/>
<path d="M1100 820 c0 -25 17 -35 35 -20 18 15 12 26 -15 33 -15 4 -20 0 -20
-13z"/>
<path d="M928 823 c7 -3 16 -2 19 1 4 3 -2 6 -13 5 -11 0 -14 -3 -6 -6z"/>
<path d="M810 792 c0 -2 7 -10 15 -19 8 -8 13 -19 10 -24 -4 -5 1 -9 9 -9 16
0 42 38 33 47 -6 6 -67 11 -67 5z"/>
<path d="M913 793 c-14 -5 -18 -63 -5 -63 4 0 13 9 20 20 14 23 4 50 -15 43z"/>
<path d="M965 789 c-11 -4 -14 -8 -6 -8 9 -1 11 -9 7 -24 -4 -18 -1 -23 15
-24 17 -2 20 2 15 22 -4 14 -1 25 6 27 8 3 7 6 -3 10 -7 3 -23 2 -34 -3z"/>
<path d="M1060 785 c-10 -11 -10 -19 -2 -27 15 -15 44 -2 40 19 -4 23 -22 27
-38 8z"/>
<path d="M2040 1690 l0 -140 115 0 115 0 0 -425 0 -425 155 0 155 0 0 425 0
425 115 0 115 0 0 140 0 140 -385 0 -385 0 0 -140z"/>
<path d="M1620 450 c0 -40 4 -70 10 -70 6 0 10 30 10 70 0 40 -4 70 -10 70 -6
0 -10 -30 -10 -70z"/>
<path d="M1685 463 c-11 -32 -21 -64 -23 -70 -3 -9 13 -13 57 -13 l60 0 -23
68 c-29 86 -46 90 -71 15z m45 2 c25 -67 24 -75 -9 -75 -17 0 -31 5 -31 11 0
16 22 89 27 89 2 0 8 -11 13 -25z"/>
<path d="M1800 450 c0 -40 4 -70 10 -70 6 0 10 11 10 24 0 18 7 25 30 29 21 5
31 14 36 32 8 34 -11 55 -52 55 l-34 0 0 -70z m64 41 c10 -16 -5 -41 -25 -41
-14 0 -19 7 -19 25 0 18 5 25 19 25 11 0 22 -4 25 -9z"/>
<path d="M1900 515 c0 -3 9 -23 20 -45 11 -22 20 -51 20 -65 0 -14 5 -25 10
-25 6 0 10 11 10 25 0 14 9 43 20 65 22 44 24 50 12 50 -5 0 -15 -15 -24 -32
l-15 -33 -17 33 c-14 27 -36 44 -36 27z"/>
<path d="M2032 448 l1 -73 6 60 6 60 24 -58 c13 -32 29 -56 34 -54 6 2 21 28
34 58 l22 54 1 -57 c0 -32 5 -58 10 -58 6 0 10 30 10 70 0 88 -19 94 -54 18
l-24 -53 -22 53 c-33 76 -50 69 -48 -20z"/>
<path d="M2227 453 c-26 -71 -26 -94 0 -55 20 28 63 30 70 2 5 -19 23 -29 23
-12 0 26 -44 132 -55 132 -7 0 -24 -30 -38 -67z m52 -10 c1 -7 -8 -13 -19 -13
-23 0 -23 0 -9 37 10 26 12 27 19 8 5 -11 9 -26 9 -32z"/>
<path d="M2380 510 c0 -5 11 -10 25 -10 23 0 24 -4 28 -62 l3 -63 2 63 c2 59
3 62 27 62 14 0 25 5 25 10 0 6 -25 10 -55 10 -30 0 -55 -4 -55 -10z"/>
<path d="M2510 450 l0 -70 43 2 c36 1 38 2 10 5 -27 4 -33 9 -33 29 0 19 5 24
25 24 14 0 25 5 25 10 0 6 -11 10 -25 10 -18 0 -25 5 -25 20 0 15 7 20 24 20
14 0 28 5 31 10 4 6 -10 10 -34 10 l-41 0 0 -70z"/>
<path d="M2610 514 c0 -3 8 -19 17 -35 16 -27 16 -31 0 -58 -19 -33 -21 -41
-9 -41 5 0 15 12 22 26 l14 25 19 -25 c28 -39 42 -31 18 9 l-20 35 20 35 c24
40 8 48 -18 9 l-16 -26 -14 26 c-12 23 -33 36 -33 20z"/>
<path d="M2730 451 c0 -41 4 -71 10 -71 6 0 10 23 10 51 0 42 2 49 13 40 8 -6
22 -29 32 -51 29 -63 45 -52 45 30 0 40 -4 70 -10 70 -5 0 -10 -24 -10 -52 l0
-53 -28 50 c-15 27 -35 51 -44 53 -16 3 -18 -5 -18 -67z"/>
<path d="M2886 498 c-36 -51 -8 -118 49 -118 24 0 39 7 49 22 22 30 20 81 -2
101 -27 25 -78 22 -96 -5z m76 -5 c22 -20 23 -61 1 -85 -21 -24 -39 -23 -57 4
-21 30 -20 54 4 78 24 24 28 25 52 3z"/>
<path d="M3055 508 c-32 -87 -43 -129 -33 -126 6 2 19 25 27 50 9 26 19 49 22
52 3 3 13 -19 23 -49 9 -30 22 -55 28 -55 5 0 8 6 5 13 -2 6 -13 38 -23 70
-17 54 -39 74 -49 45z"/>
<path d="M3159 504 c-7 -9 -14 -33 -14 -54 0 -48 19 -70 61 -70 43 0 64 23 64
70 0 22 -7 45 -16 54 -20 21 -78 20 -95 0z m75 -10 c31 -31 11 -104 -28 -104
-39 0 -54 82 -21 106 24 18 30 17 49 -2z"/>
<path d="M3300 450 c0 -40 4 -70 10 -70 6 0 10 27 10 60 0 57 1 60 25 60 14 0
25 5 25 10 0 6 -16 10 -35 10 l-35 0 0 -70z"/>
<path d="M3390 450 c0 -40 4 -70 10 -70 6 0 10 30 10 70 0 40 -4 70 -10 70 -6
0 -10 -30 -10 -70z"/>
<path d="M3462 458 c-12 -35 -22 -66 -22 -70 0 -17 18 -7 23 12 3 13 14 20 31
20 15 0 30 -8 36 -20 6 -11 15 -20 20 -20 14 0 -35 135 -51 138 -9 2 -22 -19
-37 -60z m58 -20 c0 -5 -9 -8 -20 -8 -20 0 -25 15 -13 45 5 15 8 14 19 -6 7
-13 13 -27 14 -31z"/>
<path d="M3570 515 c0 -3 10 -19 21 -35 l22 -28 -22 -28 c-30 -38 -27 -44 27
-42 36 1 39 2 15 5 -38 5 -38 5 -16 39 13 21 14 30 5 45 -16 25 -15 29 7 29
11 0 23 5 26 10 4 6 -12 10 -39 10 -25 0 -46 -2 -46 -5z"/>
<path d="M3743 450 c0 -41 2 -60 4 -42 5 40 12 40 38 2 11 -16 26 -30 34 -30
9 0 4 12 -13 35 -28 36 -27 44 7 83 16 17 17 22 6 22 -9 0 -26 -15 -40 -32
l-24 -33 -6 35 c-4 23 -6 10 -6 -40z"/>
<path d="M3865 463 c-27 -81 -28 -83 -16 -83 5 0 13 9 16 20 9 27 49 26 68 -2
26 -40 28 -13 3 53 -13 35 -30 65 -38 67 -9 2 -21 -17 -33 -55z m50 -10 c5
-19 2 -23 -14 -23 -23 0 -24 3 -15 38 7 26 18 20 29 -15z"/>
<path d="M3980 450 c0 -40 4 -70 10 -70 6 0 10 30 10 70 0 40 -4 70 -10 70 -6
0 -10 -30 -10 -70z"/>
<path d="M4090 450 l0 -70 43 2 c36 1 38 2 10 5 -27 4 -33 9 -33 29 0 19 5 24
25 24 14 0 25 5 25 10 0 6 -11 10 -25 10 -18 0 -25 5 -25 20 0 16 7 20 30 20
17 0 30 5 30 10 0 6 -18 10 -40 10 l-40 0 0 -70z"/>
<path d="M4200 450 c0 -40 4 -70 10 -70 6 0 10 11 10 24 0 18 7 25 30 29 21 5
31 14 36 32 8 34 -11 55 -52 55 l-34 0 0 -70z m64 41 c10 -16 -5 -41 -25 -41
-14 0 -19 7 -19 25 0 18 5 25 19 25 11 0 22 -4 25 -9z"/>
<path d="M4320 450 l0 -70 43 2 c36 1 38 2 10 5 -27 4 -33 9 -33 29 0 17 6 24
19 24 11 0 23 5 26 10 4 6 -5 10 -19 10 -19 0 -26 5 -26 20 0 15 7 20 25 20
14 0 25 5 25 10 0 6 -16 10 -35 10 l-35 0 0 -70z"/>
<path d="M4430 480 c11 -21 20 -53 20 -70 0 -16 5 -30 10 -30 6 0 10 11 10 25
0 14 9 43 20 65 22 44 24 50 12 50 -5 0 -15 -15 -24 -32 l-15 -33 -17 33 c-9
17 -21 32 -26 32 -6 0 -1 -18 10 -40z"/>
<path d="M4542 448 l1 -73 6 55 6 55 18 -27 c9 -16 24 -39 32 -53 26 -42 35
-29 33 48 l-1 72 -6 -55 -6 -55 -17 25 c-9 14 -22 37 -29 53 -7 15 -18 27 -26
27 -10 0 -13 -18 -11 -72z"/>
<path d="M4692 458 c-12 -35 -22 -66 -22 -70 0 -17 18 -7 23 12 3 13 14 20 31
20 15 0 30 -8 36 -20 6 -11 15 -20 20 -20 8 0 -9 59 -35 123 -13 32 -31 17
-53 -45z m58 -20 c0 -5 -9 -8 -20 -8 -20 0 -25 15 -13 45 5 15 8 14 19 -6 7
-13 13 -27 14 -31z"/>
<path d="M4800 515 c0 -3 10 -19 21 -35 l22 -28 -22 -28 c-30 -38 -27 -44 27
-42 36 1 39 2 15 5 -38 5 -38 5 -16 39 13 21 14 30 5 45 -16 25 -15 29 8 29
11 0 20 5 20 10 0 6 -18 10 -40 10 -22 0 -40 -2 -40 -5z"/>
</g>
</svg>
