<?xml version="1.0" standalone="no"?>
<!DOCTYPE svg PUBLIC "-//W3C//DTD SVG 20010904//EN"
 "http://www.w3.org/TR/2001/REC-SVG-20010904/DTD/svg10.dtd">
<svg version="1.0" xmlns="http://www.w3.org/2000/svg"
 width="1200.000000pt" height="674.000000pt" viewBox="0 0 1200.000000 674.000000"
 preserveAspectRatio="xMidYMid meet">

<g transform="translate(0.000000,674.000000) scale(0.100000,-0.100000)"
fill="#000000" stroke="none">
<path d="M5198 5013 l-868 -3 0 -320 0 -320 260 0 260 0 0 -965 0 -965 350 0
350 0 0 965 0 965 260 0 260 0 0 325 c0 179 -1 324 -2 323 -2 -2 -393 -4 -870
-5z"/>
<path d="M2171 4915 c-223 -49 -414 -157 -597 -339 -219 -219 -321 -432 -355
-743 -39 -359 65 -675 306 -931 115 -122 221 -201 360 -268 127 -61 225 -88
380 -105 365 -39 696 69 983 320 245 214 382 558 357 901 -40 563 -391 1006
-899 1135 -181 46 -403 58 -535 30z m169 -22 c0 -5 -24 -89 -53 -188 l-53
-180 -80 -2 c-47 -2 -104 -11 -137 -22 -55 -19 -160 -84 -186 -115 -7 -9 -18
-16 -23 -16 -5 0 -55 42 -110 93 l-100 92 49 44 c110 100 286 205 422 251 99
33 271 60 271 43z m113 -3 c13 0 17 -5 13 -17 -2 -10 -8 -107 -11 -216 -7
-196 -7 -198 -29 -190 -11 3 -54 16 -93 28 -40 12 -75 24 -78 27 -6 5 90 350
102 372 3 4 22 6 42 2 20 -3 44 -6 54 -6z m207 -31 c119 -27 252 -80 345 -138
80 -50 215 -156 215 -170 0 -8 -176 -161 -186 -161 -3 0 -32 24 -64 53 -119
108 -252 165 -395 173 l-80 4 95 -14 c52 -8 121 -24 153 -36 83 -31 189 -106
281 -196 74 -74 172 -192 165 -198 -2 -1 -50 -22 -107 -46 l-103 -44 -45 52
c-26 29 -70 72 -100 96 l-53 44 32 27 32 26 -28 -6 c-22 -4 -29 -1 -39 20 -10
22 -8 29 13 51 24 26 70 54 88 54 5 0 17 -7 25 -16 9 -8 21 -14 28 -12 16 6
-55 48 -80 48 -29 0 -122 -76 -122 -100 0 -11 7 -20 15 -20 20 0 51 -48 38
-61 -7 -7 -28 2 -64 26 -30 20 -100 59 -157 88 l-103 52 5 120 c4 66 9 164 12
218 l6 98 47 -6 c25 -4 84 -15 131 -26z m-965 -412 l100 -94 -62 -68 c-34 -37
-85 -108 -114 -157 -39 -66 -57 -87 -68 -83 -9 4 -64 22 -124 42 -123 41 -119
30 -60 151 50 103 196 302 221 302 4 0 52 -42 107 -93z m1660 -63 c51 -75 110
-191 148 -291 l16 -41 -104 -37 c-99 -36 -125 -38 -125 -12 0 20 -57 134 -95
192 -20 29 -61 81 -91 115 -29 33 -54 64 -53 68 0 4 42 42 92 84 l92 77 33
-37 c18 -20 57 -73 87 -118z m-988 88 c51 -17 121 -46 156 -64 l64 -33 -64
-98 -64 -97 -38 20 c-102 52 -248 73 -323 46 l-37 -13 -65 98 c-36 54 -66 102
-66 107 0 12 41 34 100 54 84 28 218 20 337 -20z m-389 -137 c34 -52 62 -99
62 -105 0 -5 -10 -15 -22 -21 -13 -6 -49 -34 -80 -61 l-57 -49 -85 63 c-47 35
-85 68 -86 74 0 12 184 194 197 194 4 0 36 -43 71 -95z m767 -53 c39 -25 102
-77 141 -116 75 -75 104 -132 125 -240 14 -73 11 -231 -6 -311 -16 -77 -62
-195 -76 -195 -10 0 -229 108 -229 113 0 1 10 30 22 62 18 48 22 81 22 170 0
98 -3 116 -26 168 -31 66 -118 162 -189 208 -27 17 -49 35 -49 39 0 4 27 49
60 100 l60 91 38 -22 c20 -12 69 -43 107 -67z m-542 -149 c21 -149 22 -143
-10 -143 -40 0 -110 -38 -138 -75 l-25 -32 -102 38 c-55 21 -103 41 -106 43
-10 11 55 105 112 161 61 59 130 101 190 116 64 15 61 18 79 -108z m117 90
c90 -24 209 -92 280 -159 36 -34 63 -64 60 -67 -12 -10 -238 -127 -246 -127
-5 0 -20 16 -33 35 -25 37 -74 72 -118 84 -26 7 -28 12 -40 97 -6 49 -15 106
-18 126 l-5 38 32 -6 c18 -3 58 -13 88 -21z m-535 -69 c47 -36 85 -67 85 -69
0 -3 -14 -26 -30 -52 -86 -136 -107 -298 -63 -497 10 -45 12 -71 5 -75 -6 -3
-56 -22 -112 -41 -118 -40 -111 -43 -137 70 -12 52 -18 115 -17 205 0 137 12
202 60 319 22 54 110 206 120 206 2 0 42 -30 89 -66z m1447 -50 c32 -58 68
-158 68 -191 0 -15 -6 -23 -17 -23 -10 -1 -69 -7 -132 -14 -78 -8 -114 -9
-116 -2 -2 6 -9 37 -15 69 -7 33 -18 74 -26 92 -9 22 -10 36 -4 40 27 17 196
84 205 82 6 -2 22 -26 37 -53z m-1784 -39 c92 -30 113 -40 109 -54 -3 -9 -15
-47 -27 -86 -27 -86 -38 -281 -21 -369 8 -43 8 -62 0 -66 -15 -10 -229 -43
-235 -38 -23 23 -32 307 -14 433 15 103 51 227 64 222 6 -2 62 -21 124 -42z
m2094 -120 c10 -44 21 -131 24 -192 l7 -113 -89 -1 c-49 -1 -105 -3 -125 -4
l-37 -3 2 117 c0 64 -3 139 -7 166 l-8 50 93 32 c51 17 100 31 108 30 10 -2
21 -28 32 -82z m-831 -33 c32 -81 32 -212 0 -305 -34 -101 -100 -183 -181
-225 -60 -31 -71 -34 -140 -30 -60 2 -89 9 -140 35 -36 18 -78 45 -93 61 l-28
29 67 74 c37 41 73 81 80 89 11 11 17 12 26 2 18 -18 62 -14 91 9 39 30 52 88
34 150 l-15 49 127 68 c84 46 130 65 138 59 7 -5 22 -34 34 -65z m-415 49 c69
-31 124 -129 124 -218 0 -36 -6 -50 -29 -74 -16 -16 -37 -29 -46 -29 -64 0
-105 96 -75 174 5 15 6 26 0 26 -5 0 -11 -9 -15 -19 -8 -25 -17 -27 -136 -23
-115 4 -118 8 -70 84 56 88 157 120 247 79z m-371 -53 c44 -16 83 -32 87 -36
3 -4 -1 -35 -9 -70 -14 -57 -14 -68 1 -130 9 -37 33 -93 52 -125 20 -32 32
-62 28 -66 -5 -4 -49 -43 -97 -86 -49 -43 -92 -75 -95 -69 -70 98 -121 231
-122 319 0 30 1 30 58 33 31 2 66 5 77 7 11 2 33 4 48 4 18 1 27 6 24 14 -4
13 -102 12 -169 -3 l-38 -8 0 57 c0 52 22 171 36 193 3 5 13 6 23 3 9 -4 52
-20 96 -37z m1386 -60 c5 -103 -3 -184 -27 -264 -26 -91 -87 -219 -126 -266
l-23 -27 -92 65 -92 65 25 56 c34 77 53 164 59 273 2 51 6 95 9 97 3 4 189 27
249 32 13 1 17 -7 18 -31z m-1095 -68 c28 0 31 -3 32 -36 1 -20 8 -47 16 -59
14 -22 11 -27 -61 -106 -41 -46 -79 -85 -84 -87 -11 -4 -70 90 -92 146 -17 43
-23 132 -9 146 4 5 43 6 87 2 44 -3 94 -6 111 -6z m1349 -222 c-4 -39 -12 -92
-19 -117 l-11 -46 -153 -8 c-85 -5 -156 -7 -158 -4 -2 2 11 37 30 78 19 41 39
93 45 116 l12 42 102 4 c56 1 115 4 131 5 l28 2 -7 -72z m-645 -159 c0 -4 -40
-45 -89 -91 -127 -119 -306 -221 -412 -235 l-38 -5 6 128 c3 71 7 130 8 131 1
2 25 7 54 13 80 15 148 57 199 122 l44 57 114 -57 c63 -31 114 -60 114 -63z
m-773 40 c49 -45 128 -86 186 -95 20 -4 39 -10 41 -13 3 -4 1 -65 -2 -136 l-7
-130 -45 4 c-98 7 -217 68 -344 176 l-69 59 94 87 c52 49 96 88 98 89 2 0 24
-18 48 -41z m-613 -2 c6 -33 69 -168 103 -219 9 -15 15 -29 13 -31 -3 -2 -49
-34 -104 -71 -76 -53 -101 -65 -108 -54 -76 114 -147 271 -151 335 l-2 38 90
16 c143 26 152 25 159 -14z m296 -40 c31 -64 143 -176 242 -244 68 -46 176
-93 213 -93 13 0 14 -17 9 -117 -4 -65 -8 -120 -10 -122 -12 -14 -267 72 -273
92 -2 5 27 47 64 93 37 47 65 87 62 90 -2 3 -37 -36 -77 -85 -81 -103 -69
-101 -175 -26 -112 80 -230 215 -289 333 -25 50 -26 54 -9 59 10 3 59 20 108
38 50 18 95 33 100 33 6 1 21 -22 35 -51z m1288 -111 c10 -10 2 -26 -39 -80
-208 -276 -412 -396 -670 -396 -54 0 -100 3 -102 8 -3 4 -3 58 0 120 l6 112
36 0 c98 0 278 76 403 171 37 27 96 81 130 118 l63 69 80 -55 c44 -31 86 -61
93 -67z m412 81 c0 -26 -32 -107 -42 -107 -7 0 -9 17 -6 44 5 43 4 45 -23 51
-30 7 -80 -12 -87 -32 -2 -7 3 -13 12 -13 24 0 40 -38 27 -66 -7 -17 -7 -25 1
-30 7 -4 14 -2 16 4 2 7 12 12 22 12 10 0 20 6 23 13 2 6 7 9 11 5 4 -3 -3
-26 -16 -51 l-23 -45 -132 72 c-72 39 -135 74 -138 78 -4 4 2 20 14 36 20 29
23 29 118 31 54 1 99 4 102 7 2 2 31 4 63 4 41 0 58 -4 58 -13z m-237 -148
c73 -39 135 -74 139 -78 14 -13 -127 -195 -199 -255 l-32 -27 -120 91 -120 92
63 74 c35 41 79 97 98 124 18 27 35 50 36 50 2 0 63 -32 135 -71z m-1418 -244
c64 -46 195 -114 258 -134 20 -7 37 -18 37 -24 0 -37 -54 -227 -64 -227 -57 0
-279 105 -377 177 -117 87 -277 253 -263 274 3 5 48 38 101 73 l95 64 76 -80
c43 -44 104 -100 137 -123z m1194 -32 c64 -47 118 -88 121 -90 13 -11 -175
-137 -274 -184 -78 -36 -255 -94 -263 -85 -4 3 -63 220 -63 230 0 1 19 8 43
15 71 22 173 80 244 141 38 32 70 59 72 59 2 1 56 -38 120 -86z m-730 -144
c56 -6 109 -6 158 1 41 5 76 10 78 10 1 0 15 -50 30 -111 20 -79 25 -113 17
-121 -17 -17 -292 -23 -397 -9 -49 7 -91 14 -93 15 -3 3 42 193 54 225 3 10
14 12 37 7 17 -4 70 -11 116 -17z"/>
<path d="M2190 4813 c0 -7 -8 -13 -17 -13 -13 0 -14 -3 -6 -11 6 -6 9 -18 6
-25 -3 -8 0 -14 6 -14 6 0 11 -7 11 -15 0 -18 16 -20 26 -4 4 8 9 7 16 -2 7
-11 11 -11 15 -1 2 6 11 12 18 12 9 0 13 11 13 30 -1 18 -6 30 -15 30 -7 0
-13 6 -13 13 0 8 -12 14 -30 14 -18 0 -30 -6 -30 -14z m42 -38 c0 -5 -5 -11
-11 -13 -6 -2 -11 4 -11 13 0 9 5 15 11 13 6 -2 11 -8 11 -13z"/>
<path d="M2095 4743 c2 -71 4 -78 21 -75 27 5 30 10 16 32 -7 11 -12 42 -12
70 0 34 -4 50 -13 50 -10 0 -13 -20 -12 -77z"/>
<path d="M2005 4709 c6 -18 4 -20 -14 -14 -12 4 -21 2 -21 -4 0 -6 7 -11 16
-11 9 0 14 -8 13 -17 -3 -35 1 -43 26 -43 14 0 25 -4 25 -10 0 -5 7 -7 15 -3
14 5 14 7 0 23 -8 9 -15 24 -15 34 0 20 -29 66 -42 66 -5 0 -6 -9 -3 -21z"/>
<path d="M1846 4664 c-9 -8 -16 -20 -16 -25 0 -52 81 -70 102 -24 22 48 -48
88 -86 49z"/>
<path d="M1760 4580 c0 -11 -7 -20 -15 -20 -21 0 -14 -34 13 -63 12 -13 22
-29 22 -35 0 -32 65 5 81 45 12 32 3 46 -20 33 -14 -7 -24 -4 -40 11 -11 11
-21 26 -21 34 0 8 -4 15 -10 15 -5 0 -10 -9 -10 -20z"/>
<path d="M2413 4753 c-1 -16 -4 -59 -7 -98 -3 -38 -3 -63 0 -55 3 8 8 22 11
30 9 23 13 150 5 150 -4 0 -8 -12 -9 -27z"/>
<path d="M2360 4711 c0 -5 -16 -28 -35 -51 -40 -48 -42 -52 -18 -43 11 4 14 3
9 -5 -5 -8 0 -12 13 -12 15 0 21 7 21 23 1 12 7 39 14 60 8 20 10 37 5 37 -5
0 -9 -4 -9 -9z"/>
<path d="M2390 4565 c-7 -9 -8 -15 -2 -15 5 0 12 7 16 15 3 8 4 15 2 15 -2 0
-9 -7 -16 -15z"/>
<path d="M2495 4809 c-10 -15 1 -23 20 -15 9 3 13 10 10 16 -8 13 -22 13 -30
-1z"/>
<path d="M2645 4810 c-4 -6 -14 -9 -22 -6 -22 9 -43 -12 -43 -43 0 -15 -6 -33
-12 -40 -29 -29 65 -56 102 -30 12 8 12 12 2 16 -7 3 -18 17 -23 30 -7 20 -6
30 7 45 13 13 14 22 7 29 -8 8 -13 7 -18 -1z"/>
<path d="M2728 4779 c-21 -12 -24 -59 -6 -77 20 -20 56 -14 74 13 15 23 15 27
0 50 -17 26 -40 31 -68 14z"/>
<path d="M2857 4721 c-15 -27 -36 -65 -47 -83 -23 -38 -25 -48 -7 -48 17 0
101 160 89 172 -6 6 -20 -10 -35 -41z"/>
<path d="M2490 4750 c0 -5 7 -10 15 -10 8 0 15 5 15 10 0 6 -7 10 -15 10 -8 0
-15 -4 -15 -10z"/>
<path d="M2486 4701 c-3 -5 0 -11 8 -14 15 -6 26 1 26 15 0 11 -27 10 -34 -1z"/>
<path d="M2927 4693 c-4 -6 -3 -14 3 -18 13 -8 13 -72 1 -80 -5 -3 -12 -1 -16
5 -3 5 -16 10 -28 9 -15 0 -17 -2 -7 -6 34 -13 41 -25 23 -38 -15 -11 -15 -15
-4 -29 18 -22 31 -20 31 4 0 14 7 20 24 20 13 0 34 9 47 20 29 24 18 26 -17 4
-13 -9 -28 -14 -31 -10 -10 9 37 55 60 58 11 2 22 10 25 18 4 12 2 13 -9 3 -7
-7 -26 -13 -41 -13 -22 0 -31 7 -41 32 -8 20 -16 28 -20 21z"/>
<path d="M2496 4663 c-11 -11 -6 -23 9 -23 8 0 15 4 15 9 0 13 -16 22 -24 14z"/>
<path d="M2526 4564 c-9 -8 -16 -20 -16 -26 0 -6 -8 -20 -17 -30 -16 -18 -16
-20 3 -38 24 -23 64 -33 84 -21 12 8 12 13 2 23 -19 19 -14 56 8 68 26 14 26
34 0 27 -11 -3 -23 -1 -26 4 -8 13 -21 11 -38 -7z"/>
<path d="M3028 4553 c-8 -14 3 -103 12 -103 5 0 10 17 12 38 3 36 4 37 42 38
22 0 42 6 44 12 2 8 -10 12 -36 12 -22 0 -47 3 -55 6 -8 3 -17 2 -19 -3z"/>
<path d="M2675 4539 c4 -6 4 -26 1 -45 -5 -25 -12 -34 -26 -34 -11 0 -20 -4
-20 -10 0 -5 7 -10 16 -10 10 0 13 -6 9 -19 -7 -23 21 -37 29 -15 4 10 13 13
26 9 11 -4 20 -2 20 4 0 6 -5 11 -11 11 -18 0 1 43 29 67 24 21 25 23 7 23
-11 0 -29 7 -39 15 -23 17 -50 20 -41 4z"/>
<path d="M2946 4345 c-17 -13 -33 -23 -37 -22 -9 2 -69 -35 -69 -43 0 -3 4
-11 9 -19 8 -12 13 -12 36 3 15 10 29 25 32 35 2 9 21 28 40 44 20 15 32 27
27 27 -5 -1 -22 -12 -38 -25z"/>
<path d="M2989 4280 c-26 -22 -49 -37 -52 -33 -4 3 -13 0 -22 -7 -14 -12 -14
-15 1 -31 15 -17 19 -15 71 36 66 65 67 91 2 35z"/>
<path d="M2988 4184 c-12 -43 -13 -54 -2 -54 7 0 18 16 24 35 13 40 12 40 52
19 20 -10 34 -12 40 -6 11 11 0 19 -63 45 l-36 15 -15 -54z"/>
<path d="M1596 4435 c-9 -13 -16 -29 -16 -34 0 -17 36 -31 76 -31 30 0 35 3
26 12 -7 7 -12 19 -12 28 0 18 -30 50 -47 50 -6 0 -18 -11 -27 -25z"/>
<path d="M1506 4355 c-3 -8 -1 -15 5 -15 5 0 25 -16 45 -35 39 -39 43 -40 69
-21 26 19 14 41 -36 66 -51 24 -75 25 -83 5z"/>
<path d="M1476 4274 c-4 -9 -5 -17 -4 -18 2 -1 23 -11 48 -24 56 -27 60 -27
60 1 0 16 -9 25 -32 33 -18 6 -40 14 -49 18 -11 5 -19 1 -23 -10z"/>
<path d="M1426 4212 c19 -38 18 -47 -12 -67 -14 -9 -23 -19 -21 -22 3 -3 16 2
29 11 12 9 35 16 49 16 22 0 26 -4 22 -19 -3 -11 0 -28 6 -38 10 -15 10 -14 5
8 -6 30 10 46 30 30 10 -8 16 -7 26 3 16 20 3 38 -21 31 -14 -5 -19 -2 -19 14
0 11 -10 27 -22 35 -33 24 -45 19 -14 -5 28 -22 34 -39 14 -39 -17 1 -58 35
-58 48 0 5 -6 12 -14 15 -12 5 -12 2 0 -21z"/>
<path d="M3235 4433 c-11 -8 -19 -19 -17 -25 3 -10 -13 -8 -53 7 -18 8 -18 6
3 -17 16 -17 19 -27 11 -30 -17 -6 -23 -78 -7 -79 7 0 23 -2 36 -3 13 -2 22 3
22 11 0 18 25 17 40 -2 7 -8 17 -15 23 -15 5 0 2 9 -8 20 -14 16 -16 23 -7 32
7 7 12 8 12 3 0 -11 29 27 30 39 0 5 -7 3 -15 -4 -23 -19 -43 3 -25 27 12 15
12 16 0 6 -19 -18 -45 4 -29 24 17 20 7 24 -16 6z"/>
<path d="M3340 4249 c-14 -4 -37 -11 -51 -14 -31 -6 -43 -29 -29 -56 14 -25
23 -24 71 10 22 17 45 31 50 33 11 4 1 39 -10 37 -3 -1 -17 -5 -31 -10z"/>
<path d="M3340 4128 c-25 -27 -25 -43 0 -68 23 -23 33 -24 61 -10 27 15 25 64
-3 84 -29 21 -33 20 -58 -6z"/>
<path d="M2085 4460 c-4 -6 -13 -9 -21 -6 -26 10 -44 -5 -44 -38 0 -18 -6 -38
-12 -45 -18 -17 15 -41 58 -41 37 0 63 23 41 37 -24 14 -29 44 -10 65 12 13
13 22 6 29 -8 8 -13 7 -18 -1z"/>
<path d="M2159 4449 c-26 -26 -21 -59 13 -78 24 -14 28 -14 47 3 26 24 27 50
1 76 -25 25 -35 25 -61 -1z"/>
<path d="M2370 4417 c0 -26 -28 -32 -50 -12 -19 17 -20 17 -29 -6 -6 -18 -5
-25 5 -27 19 -5 18 -22 -1 -22 -8 0 -15 -4 -15 -10 0 -13 6 -13 32 1 19 10 19
9 13 -20 -8 -38 8 -41 31 -7 9 14 22 22 30 19 11 -4 13 4 9 37 -4 43 -25 82
-25 47z"/>
<path d="M2471 4340 c-5 -16 -15 -30 -20 -30 -14 0 -51 -37 -51 -51 0 -6 14 1
31 15 17 14 34 26 39 26 4 0 10 8 13 18 2 9 8 25 12 35 4 9 3 17 -3 17 -6 0
-15 -13 -21 -30z"/>
<path d="M1887 4346 c5 -43 4 -45 -23 -48 -15 -2 -29 -9 -32 -16 -3 -11 0 -12
16 -3 11 6 28 9 36 6 9 -3 24 -7 33 -10 12 -4 14 -8 5 -17 -7 -7 -11 -23 -11
-37 1 -21 2 -22 6 -6 8 33 22 41 37 20 12 -16 16 -17 30 -6 22 18 20 31 -5 31
-15 0 -19 5 -14 19 6 20 -13 71 -27 71 -5 0 -1 -11 8 -26 11 -17 14 -28 7 -35
-7 -7 -16 -1 -29 18 -19 28 -21 33 -23 66 0 9 -5 17 -10 17 -5 0 -6 -20 -4
-44z"/>
<path d="M1780 4238 c1 -16 30 -50 57 -65 17 -10 24 -9 33 2 9 11 6 17 -17 32
-15 9 -32 23 -36 30 -10 17 -37 17 -37 1z"/>
<path d="M2594 4269 c-3 -6 -19 -18 -34 -28 -28 -16 -28 -18 -14 -48 15 -29
60 -60 72 -48 3 3 6 18 7 33 0 20 8 31 35 44 31 15 33 17 15 24 -11 4 -23 12
-27 18 -9 14 -46 18 -54 5z"/>
<path d="M2681 4181 c-17 -31 -13 -49 14 -67 31 -20 63 -10 71 23 9 35 -7 57
-44 61 -22 2 -34 -2 -41 -17z"/>
<path d="M2860 4102 c0 -4 -14 -16 -31 -26 -23 -13 -34 -15 -42 -7 -16 16 -30
13 -23 -5 4 -9 1 -23 -5 -30 -14 -17 -3 -35 16 -28 8 4 18 -1 21 -10 3 -9 10
-16 15 -16 4 0 6 6 3 14 -7 18 31 39 68 38 15 0 28 4 28 9 0 5 -4 9 -9 9 -5 0
-12 14 -16 30 -6 26 -25 43 -25 22z"/>
<path d="M2855 3947 c-33 -6 -62 -12 -64 -13 -2 -2 2 -17 9 -34 8 -19 20 -30
32 -30 17 0 20 5 15 30 -6 27 -4 30 18 30 18 0 26 -7 31 -26 10 -40 39 -27 39
19 0 20 -4 36 -10 36 -5 -1 -37 -6 -70 -12z"/>
<path d="M2890 3820 c0 -5 -13 -7 -30 -4 -25 6 -30 3 -36 -20 -3 -14 -10 -23
-15 -20 -5 3 -9 -2 -9 -10 0 -18 25 -22 35 -6 3 6 16 8 29 4 25 -6 76 11 76
25 0 5 -10 7 -21 4 -18 -5 -20 -3 -14 16 4 12 2 21 -4 21 -6 0 -11 -4 -11 -10z"/>
<path d="M2836 3690 c-26 -26 -35 -40 -26 -45 7 -4 24 4 41 21 l29 28 28 -34
c16 -19 31 -29 35 -23 6 10 -49 94 -61 92 -4 -1 -24 -18 -46 -39z"/>
<path d="M2811 3603 c-1 -16 -7 -23 -21 -23 -11 0 -20 -7 -20 -15 0 -8 7 -15
15 -15 9 0 15 -9 15 -22 0 -20 1 -20 19 -4 19 17 65 14 77 -5 14 -23 29 -6 31
36 1 42 -8 57 -22 35 -12 -19 -62 -11 -78 13 l-16 22 0 -22z"/>
<path d="M2135 4118 c-19 -18 -19 -18 5 -14 14 2 28 5 33 5 12 1 8 18 -5 23
-7 3 -22 -3 -33 -14z"/>
<path d="M1990 4124 c0 -16 63 -154 71 -154 13 0 11 17 -7 51 -20 39 -14 45
26 24 20 -10 36 -13 42 -7 6 6 -10 17 -41 31 -28 12 -55 30 -61 41 -10 18 -30
28 -30 14z"/>
<path d="M2147 4088 c-15 -12 -15 -14 9 -25 21 -10 25 -9 21 1 -3 8 0 19 6 25
16 16 -14 15 -36 -1z"/>
<path d="M1870 4000 c0 -5 22 -19 49 -31 27 -11 52 -27 55 -35 7 -19 32 -18
40 2 8 21 -1 34 -25 34 -11 0 -37 9 -59 20 -43 22 -60 25 -60 10z"/>
<path d="M2286 4158 c-4 -23 -11 -45 -15 -48 -4 -3 -11 -22 -15 -43 -7 -36 -6
-38 16 -35 22 3 23 7 24 86 1 45 0 82 -1 82 -1 0 -5 -19 -9 -42z"/>
<path d="M2400 4091 c0 -5 -13 -11 -30 -14 -25 -5 -30 -11 -30 -35 0 -34 16
-52 47 -52 22 0 28 9 24 38 -1 8 5 22 14 32 9 10 14 24 10 29 -8 13 -35 15
-35 2z"/>
<path d="M2510 4063 c0 -7 -9 -13 -21 -13 -15 0 -19 -5 -15 -15 3 -9 0 -18 -8
-21 -22 -8 4 -55 27 -48 11 3 17 0 17 -9 0 -13 4 -13 25 -4 14 7 23 18 20 25
-2 6 2 12 10 12 8 0 15 5 15 10 0 6 -4 10 -10 10 -5 0 -10 9 -10 21 0 12 -5
19 -12 16 -7 -2 -18 3 -25 12 -8 11 -12 12 -13 4z m17 -69 c-9 -9 -28 6 -21
18 4 6 10 6 17 -1 6 -6 8 -13 4 -17z"/>
<path d="M1693 4109 c4 -29 8 -53 10 -55 1 -2 26 4 55 12 60 18 61 37 1 28
-35 -6 -39 -4 -39 14 0 28 -10 52 -22 52 -7 0 -9 -19 -5 -51z"/>
<path d="M1634 4039 c-8 -13 -8 -12 46 -33 25 -10 53 -25 63 -34 18 -16 20
-15 33 2 17 24 10 36 -21 36 -13 0 -44 9 -69 20 -29 12 -48 15 -52 9z"/>
<path d="M1621 3947 c20 -7 42 -17 50 -23 8 -6 29 -16 46 -22 29 -9 34 -8 43
8 13 24 1 32 -58 35 -26 1 -63 5 -82 8 l-35 6 36 -12z"/>
<path d="M1544 3855 c-3 -19 -4 -41 -1 -49 9 -23 80 -66 121 -73 32 -5 36 -3
36 16 0 12 11 33 24 45 l23 24 -24 11 c-33 15 -35 14 -21 -10 11 -18 10 -23
-10 -39 -22 -18 -24 -18 -65 0 -54 25 -80 55 -67 80 12 23 13 30 0 30 -5 0
-12 -16 -16 -35z"/>
<path d="M1668 3690 c-19 -21 -62 -27 -73 -10 -13 21 -22 8 -20 -30 2 -43 12
-61 23 -43 4 6 22 14 40 18 24 5 33 3 38 -9 8 -22 24 -20 24 3 0 10 7 21 15
25 21 8 19 26 -4 26 -12 0 -21 8 -23 20 l-3 21 -17 -21z"/>
<path d="M1680 3562 c0 -24 -35 -44 -65 -36 -27 7 -36 -12 -10 -22 8 -4 12
-10 9 -16 -12 -19 28 -36 58 -26 16 6 35 8 43 5 31 -13 30 59 -3 96 -19 22
-32 22 -32 -1z"/>
<path d="M3105 4093 c-38 -8 -65 -27 -65 -45 0 -21 23 -24 39 -4 7 8 23 17 36
20 14 4 25 13 25 21 0 15 -1 16 -35 8z"/>
<path d="M3180 4023 c0 -10 -9 -29 -20 -43 l-19 -25 -16 23 c-9 12 -21 22 -26
22 -6 0 -3 -7 5 -16 20 -19 21 -38 2 -31 -22 9 -37 -13 -24 -36 10 -19 12 -19
23 -4 11 15 15 16 39 3 15 -7 37 -11 49 -7 17 5 14 7 -16 9 -64 5 -39 27 29
26 32 -1 50 1 39 4 -10 2 -29 11 -42 19 -18 12 -21 19 -13 33 13 24 13 40 0
40 -5 0 -10 -8 -10 -17z"/>
<path d="M1390 4050 c0 -8 -10 -10 -27 -7 l-28 6 28 -12 c15 -6 27 -19 27 -29
0 -10 5 -18 10 -18 6 0 10 13 10 29 0 17 -4 33 -10 36 -5 3 -10 1 -10 -5z"/>
<path d="M1422 4015 c3 -29 5 -30 24 -11 16 17 19 30 4 21 -5 -3 -10 -1 -10 4
0 6 -4 11 -10 11 -5 0 -9 -11 -8 -25z"/>
<path d="M1415 3949 c-16 -5 -47 -7 -67 -4 -21 3 -38 2 -38 -2 0 -9 134 -83
150 -83 23 0 8 17 -32 37 l-43 21 43 11 c23 7 42 16 42 21 0 12 -15 11 -55 -1z"/>
<path d="M1313 3820 c3 -19 11 -23 59 -26 53 -4 56 -3 51 16 -4 15 -14 20 -37
20 -17 0 -41 3 -54 6 -19 5 -22 3 -19 -16z"/>
<path d="M1305 3726 c-31 -47 22 -93 70 -62 30 19 32 47 7 69 -26 24 -59 21
-77 -7z"/>
<path d="M1395 3611 c-8 -25 -38 -35 -64 -22 -26 15 -40 -6 -15 -23 9 -7 14
-18 10 -24 -10 -17 24 -31 54 -22 15 4 33 4 41 -1 29 -18 40 51 13 89 -19 27
-31 28 -39 3z"/>
<path d="M3420 3926 c0 -39 6 -43 34 -23 24 18 17 51 -12 55 -19 3 -22 -1 -22
-32z"/>
<path d="M3373 3838 c-38 -18 -26 -23 55 -22 109 2 112 2 112 19 0 13 -3 13
-20 3 -15 -10 -29 -10 -65 0 -53 14 -53 14 -82 0z"/>
<path d="M3364 3794 c-18 -14 -18 -15 6 -8 29 9 51 9 100 -1 23 -4 41 -2 53 7
15 11 6 13 -62 15 -57 2 -84 -2 -97 -13z"/>
<path d="M3415 3738 c-20 -11 -55 -44 -55 -51 0 -9 80 -29 94 -24 18 7 21 39
6 68 -12 22 -17 23 -45 7z"/>
<path d="M2569 3910 c-27 -27 -33 -60 -8 -44 16 9 49 -26 49 -53 0 -26 15 -31
24 -8 3 8 12 15 20 15 21 0 25 35 6 60 -10 13 -15 31 -13 41 9 32 -43 24 -78
-11z"/>
<path d="M2482 3834 c-30 -21 -29 -59 3 -80 23 -15 27 -15 50 0 32 21 33 59 3
80 -12 9 -25 16 -28 16 -3 0 -16 -7 -28 -16z"/>
<path d="M2562 3723 c1 -10 -2 -31 -6 -47 -6 -25 -5 -28 11 -22 46 18 76 19
85 3 5 -10 14 -17 19 -17 6 0 7 5 4 11 -4 6 2 13 14 16 24 6 29 33 6 33 -9 0
-15 9 -15 22 0 20 -1 20 -19 4 -19 -17 -65 -14 -77 5 -9 15 -23 10 -22 -8z"/>
<path d="M2518 3599 l-26 -29 45 -20 c37 -16 43 -23 38 -40 -7 -21 9 -28 20
-9 4 6 14 8 22 5 22 -9 36 3 22 20 -9 11 -8 18 2 30 12 15 11 16 -7 10 -24 -7
-74 26 -74 50 0 20 -11 16 -42 -17z"/>
<path d="M2251 3586 c-9 -10 -8 -16 4 -26 14 -12 14 -15 -1 -32 -10 -10 -25
-16 -34 -13 -11 4 -20 -1 -24 -12 -4 -10 -2 -19 4 -21 6 -2 17 -10 24 -18 8
-8 19 -14 25 -14 16 0 25 22 11 30 -7 4 -9 13 -5 19 5 9 10 9 21 0 17 -14 19
2 2 19 -9 9 -9 12 3 12 8 0 20 -5 27 -12 9 -9 14 -6 20 13 8 21 5 27 -24 46
-39 27 -38 27 -53 9z"/>
<path d="M2375 3570 c-3 -5 -2 -18 3 -27 6 -10 9 -41 7 -69 -1 -29 1 -58 6
-65 4 -8 7 10 5 41 -1 30 3 69 10 87 10 27 10 32 -3 37 -19 8 -21 8 -28 -4z"/>
<path d="M2444 3519 c-3 -5 -1 -9 5 -9 6 0 8 -7 4 -16 -5 -14 -3 -15 15 -5 32
17 34 28 7 34 -14 2 -28 0 -31 -4z"/>
<path d="M2481 3479 c-13 -11 -21 -22 -17 -26 3 -3 6 -3 6 2 0 4 8 1 17 -6 14
-12 16 -12 8 0 -5 9 -2 18 9 27 9 6 14 14 9 17 -4 3 -19 -4 -32 -14z"/>
<path d="M2209 3954 c-11 -13 -11 -18 -1 -21 6 -3 12 -12 12 -21 0 -26 13 -40
42 -47 21 -6 30 -2 43 19 14 21 15 29 5 41 -7 8 -22 15 -33 15 -11 0 -28 7
-37 15 -15 14 -19 14 -31 -1z"/>
<path d="M2090 3848 c19 -5 49 -16 67 -24 40 -18 69 -18 76 1 9 22 -11 29 -98
30 -64 2 -73 0 -45 -7z"/>
<path d="M2330 3800 c0 -6 -8 -10 -17 -8 -11 2 -17 -2 -15 -11 2 -8 -3 -18
-10 -23 -11 -6 -11 -10 0 -16 7 -5 12 -15 10 -23 -2 -8 3 -13 11 -11 8 2 18
-3 23 -10 8 -10 11 -10 15 0 2 6 9 12 15 12 11 0 37 29 38 43 0 4 -7 7 -16 7
-14 0 -14 3 -4 15 10 13 9 15 -9 15 -11 0 -21 5 -21 10 0 6 -4 10 -10 10 -5 0
-10 -5 -10 -10z m20 -50 c0 -5 -7 -10 -16 -10 -8 0 -12 5 -9 10 3 6 10 10 16
10 5 0 9 -4 9 -10z"/>
<path d="M1864 3879 c-3 -5 3 -9 13 -9 27 0 50 -17 38 -29 -7 -7 -26 -2 -57
14 -53 27 -62 24 -23 -7 29 -23 31 -35 8 -60 -28 -31 -7 -30 27 2 39 37 48 37
52 3 2 -14 10 -29 18 -31 13 -5 13 -3 1 11 -17 22 -7 54 13 38 10 -8 16 -8 26
3 15 19 3 39 -21 33 -10 -3 -25 3 -34 13 -19 21 -53 32 -61 19z"/>
<path d="M1834 3615 c-15 -23 -15 -27 0 -50 30 -45 86 -28 86 27 0 49 -59 65
-86 23z"/>
<path d="M1957 3531 c6 -23 -36 -55 -61 -45 -11 4 -16 1 -16 -10 0 -9 7 -16
15 -16 8 0 15 -4 15 -10 0 -5 9 -14 20 -20 16 -8 26 -7 42 5 13 8 30 15 40 15
30 0 17 70 -16 92 -22 15 -44 9 -39 -11z"/>
<path d="M3096 3804 c-10 -37 18 -93 47 -94 4 0 7 9 7 19 0 23 31 35 66 27 17
-5 24 -2 24 9 0 8 -4 15 -10 15 -5 0 -10 9 -10 20 0 22 -22 29 -82 27 -29 -1
-38 -6 -42 -23z"/>
<path d="M3135 3670 c-39 -43 13 -107 61 -75 31 20 32 59 2 79 -29 21 -41 20
-63 -4z"/>
<path d="M3115 3560 c-4 -6 -17 -10 -30 -10 -34 0 -39 -15 -9 -29 25 -11 25
-12 10 -36 -16 -24 -16 -26 6 -34 19 -7 24 -5 29 13 6 19 7 19 14 4 4 -10 12
-18 17 -18 6 0 3 12 -7 26 l-17 26 32 -7 c25 -5 31 -4 28 6 -2 8 -14 18 -26
24 -12 5 -20 15 -18 22 6 14 -21 26 -29 13z"/>
<path d="M3046 3405 c18 -19 39 -35 48 -35 8 0 18 -4 21 -10 8 -13 25 -13 25
-1 0 5 -10 13 -22 16 -13 4 -35 20 -50 36 -15 16 -33 29 -41 29 -9 0 -2 -13
19 -35z"/>
<path d="M2085 3760 c-16 -7 -13 -9 18 -9 20 -1 37 -5 37 -10 0 -14 -21 -18
-75 -15 l-50 3 42 -19 c40 -18 42 -21 33 -45 -12 -33 -12 -35 0 -35 6 0 10 8
10 18 0 9 9 28 20 42 l19 25 16 -22 c9 -13 21 -23 27 -23 6 0 4 8 -5 18 -23
25 -21 41 3 35 16 -4 20 0 20 21 0 29 -24 36 -34 10 -5 -14 -8 -14 -28 0 -25
18 -25 18 -53 6z"/>
<path d="M2155 3614 c-77 -61 -87 -74 -56 -74 12 0 21 4 21 8 0 5 29 30 65 56
36 26 65 52 65 57 0 20 -28 6 -95 -47z"/>
<path d="M3429 3578 c-8 -16 -7 -24 5 -36 14 -14 17 -14 36 8 26 30 25 37 -5
43 -19 3 -29 -1 -36 -15z"/>
<path d="M3346 3518 c-11 -16 -13 -25 -4 -35 14 -17 21 -16 48 5 l22 18 -25
17 c-25 16 -27 16 -41 -5z"/>
<path d="M3418 3458 c-36 -13 -35 -20 2 -37 38 -16 57 -9 55 21 -2 26 -18 31
-57 16z"/>
<path d="M2690 3450 c-20 -20 -28 -70 -12 -70 5 0 14 10 20 23 11 20 12 20 11
2 -2 -38 1 -45 26 -57 14 -6 25 -17 25 -24 0 -10 9 -12 33 -7 35 6 61 23 37
23 -12 1 -12 3 1 13 21 16 8 52 -21 60 -17 4 -26 -1 -38 -24 -10 -16 -23 -28
-31 -27 -18 4 -27 28 -11 28 17 0 51 40 44 51 -3 5 -17 6 -31 3 -17 -5 -24 -3
-19 4 12 21 -13 23 -34 2z"/>
<path d="M2590 3335 c7 -8 26 -15 43 -15 29 0 29 -1 24 -40 -7 -53 18 -55 27
-2 4 20 9 45 12 55 5 15 -2 17 -57 17 -53 0 -60 -2 -49 -15z"/>
<path d="M2480 3263 l0 -47 -30 29 c-44 42 -50 21 -7 -23 24 -25 37 -47 37
-65 0 -15 5 -27 10 -27 6 0 10 37 10 90 0 53 -4 90 -10 90 -5 0 -10 -21 -10
-47z"/>
<path d="M2530 3301 c0 -14 70 -101 82 -101 6 0 8 9 4 23 -3 12 -6 30 -6 40 0
10 -8 17 -19 17 -10 0 -24 7 -31 15 -14 16 -30 20 -30 6z"/>
<path d="M2052 3394 c-39 -27 -19 -94 27 -94 22 0 51 31 51 53 0 17 -34 57
-48 57 -4 0 -18 -7 -30 -16z"/>
<path d="M2181 3333 c-1 -7 -14 -19 -31 -28 -16 -9 -30 -23 -30 -33 0 -10 -5
-23 -12 -30 -6 -6 -9 -14 -5 -18 9 -10 27 6 27 24 0 9 14 29 31 43 19 15 29
32 26 40 -3 9 -6 10 -6 2z"/>
<path d="M2220 3273 c0 -3 8 -15 18 -26 16 -19 16 -20 -6 -35 -21 -14 -22 -16
-6 -33 16 -18 18 -18 30 -1 13 16 13 16 14 0 0 -10 5 -18 11 -18 7 0 9 10 7
24 -5 24 -4 24 19 9 32 -21 40 -10 17 24 -10 15 -18 34 -19 42 0 13 -85 28
-85 14z"/>
<path d="M1390 3415 c0 -8 -6 -15 -12 -16 -7 0 -3 -4 10 -9 12 -5 22 -14 22
-20 0 -6 4 -8 10 -5 6 4 4 17 -5 36 -17 32 -25 37 -25 14z"/>
<path d="M1423 3417 c0 -7 6 -18 14 -25 10 -10 13 -10 13 3 0 8 5 15 11 15 5
0 7 5 3 11 -4 8 -9 7 -15 -2 -6 -10 -9 -11 -9 -1 0 6 -4 12 -8 12 -5 0 -9 -6
-9 -13z"/>
<path d="M1480 3329 c-8 -5 -27 -6 -41 -3 -28 5 -99 -29 -81 -40 5 -3 18 1 28
9 10 8 38 15 61 15 23 0 45 5 48 11 10 15 2 19 -15 8z"/>
<path d="M1453 3242 c22 -25 21 -29 -8 -45 -24 -12 -24 -14 -10 -32 12 -14 18
-16 21 -7 8 17 27 15 21 -3 -4 -8 -2 -17 3 -20 9 -6 15 17 10 40 -1 5 8 1 19
-9 27 -25 38 -13 24 24 -6 17 -7 30 -2 30 4 0 6 7 2 16 -3 8 -12 13 -19 10 -7
-3 -16 -1 -19 4 -4 6 -18 10 -32 10 -25 0 -25 -1 -10 -18z"/>
<path d="M1760 3380 c-8 -5 -29 -10 -46 -10 -19 0 -34 -6 -38 -15 -3 -8 -12
-15 -21 -15 -8 0 -15 -4 -15 -10 0 -15 26 -12 40 5 7 8 23 15 35 15 13 0 33 9
46 20 25 20 24 26 -1 10z"/>
<path d="M1735 3290 c-16 -18 -16 -20 -2 -20 26 0 20 -20 -5 -21 -22 0 -22 -1
-3 -8 11 -5 24 -6 29 -4 4 3 0 -7 -10 -22 l-18 -28 29 7 c17 4 41 7 54 7 16
-1 21 3 17 14 -3 8 -1 17 4 20 6 4 10 17 10 31 0 24 -1 24 -22 10 -23 -17 -48
-6 -48 20 0 20 -14 17 -35 -6z"/>
<path d="M1852 3178 c-28 -28 -3 -88 37 -88 22 0 51 30 51 53 0 38 -61 62 -88
35z"/>
<path d="M1979 3122 c12 -22 -11 -62 -34 -62 -28 0 -24 -19 6 -34 43 -22 54
-20 77 9 11 14 25 25 31 25 19 0 12 30 -14 55 -13 14 -36 25 -50 25 -22 0 -24
-3 -16 -18z"/>
<path d="M2149 3070 c-1 -5 -2 -16 -3 -22 0 -7 -14 -35 -29 -62 -18 -32 -25
-52 -18 -59 6 -6 18 8 35 41 14 27 32 52 41 55 8 4 15 13 15 21 0 18 -39 43
-41 26z"/>
<path d="M2220 3015 c-7 -9 -13 -37 -14 -64 0 -27 -4 -53 -8 -57 -14 -13 -9
-19 16 -20 20 -2 23 2 20 29 -2 16 2 42 9 56 13 27 11 71 -2 71 -5 0 -14 -7
-21 -15z"/>
<path d="M2941 3334 c-12 -15 -21 -38 -21 -51 0 -22 3 -23 34 -18 29 6 37 3
51 -19 20 -30 40 -34 32 -7 -3 11 1 22 8 25 19 7 7 44 -19 58 -11 6 -25 17
-29 24 -12 21 -34 17 -56 -12z"/>
<path d="M2898 3219 c-21 -12 -24 -59 -6 -77 20 -20 56 -14 73 12 32 49 -16
95 -67 65z"/>
<path d="M2806 3147 c-5 -11 -15 -16 -26 -12 -23 7 -38 -14 -19 -26 11 -8 10
-12 -5 -24 -23 -17 -42 -19 -51 -5 -12 19 -33 11 -28 -10 4 -16 0 -20 -18 -21
-24 0 -24 0 -2 -9 25 -10 37 -42 29 -76 -6 -23 -4 -24 21 -17 16 4 36 7 46 7
9 0 17 6 17 13 0 7 -4 13 -8 13 -9 0 -32 44 -32 59 0 5 11 16 25 25 31 20 61
8 76 -31 l9 -25 30 31 c31 32 40 56 18 48 -22 -8 -67 25 -71 52 -3 22 -4 23
-11 8z"/>
<path d="M2563 3010 c-2 -24 19 -26 37 -5 8 9 8 15 2 15 -6 0 -17 2 -24 5 -9
4 -14 -2 -15 -15z"/>
<path d="M2470 3006 c0 -8 5 -18 10 -21 6 -3 10 -15 10 -26 0 -37 15 -18 17
21 1 33 -2 40 -18 40 -10 0 -19 -6 -19 -14z"/>
<path d="M2345 2992 c-9 -24 -5 -32 15 -32 15 0 20 -7 20 -25 0 -19 -5 -25
-21 -25 -15 0 -19 -4 -15 -16 3 -9 6 -18 6 -20 0 -2 18 -4 39 -4 25 0 41 5 45
15 4 10 -1 15 -14 15 -25 0 -26 27 -2 33 16 4 16 5 0 6 -26 1 -22 21 3 21 15
0 19 4 15 16 -3 9 -6 19 -6 22 0 13 -80 7 -85 -6z"/>
<path d="M2583 2978 c-24 -11 -32 -30 -11 -25 6 1 15 -9 19 -23 8 -24 8 -24 5
3 -2 18 2 31 10 34 15 5 20 24 7 22 -5 0 -18 -5 -30 -11z"/>
<path d="M2496 2905 c10 -46 25 -66 18 -25 -4 19 -11 40 -16 45 -6 6 -7 -1 -2
-20z"/>
<path d="M3264 3325 c-15 -23 -15 -27 0 -50 24 -37 74 -33 89 8 9 25 -11 60
-29 53 -9 -3 -12 -1 -9 4 14 23 -36 8 -51 -15z"/>
<path d="M3200 3195 c0 -8 9 -15 19 -15 17 0 19 -5 14 -33 -4 -26 -2 -34 10
-34 8 0 13 6 10 14 -8 21 10 15 47 -17 37 -31 60 -38 60 -18 0 6 -3 8 -7 5 -7
-8 -43 21 -43 34 0 4 14 3 31 -3 20 -7 34 -7 41 0 6 6 1 10 -15 10 -28 0 -97
30 -97 43 0 5 -7 9 -15 9 -8 0 -15 5 -15 10 0 6 -9 10 -20 10 -11 0 -20 -7
-20 -15z"/>
<path d="M3155 3089 c-9 -27 3 -38 62 -61 34 -13 50 -15 60 -6 19 16 16 25
-12 32 -14 4 -32 17 -41 31 -20 31 -60 34 -69 4z"/>
<path d="M3107 3013 c10 -29 25 -43 58 -57 17 -7 38 -20 46 -29 14 -13 17 -13
28 5 7 11 8 17 2 13 -6 -3 -11 1 -11 9 0 8 -6 13 -12 11 -7 -3 -25 5 -39 19
-24 22 -62 46 -73 46 -3 0 -3 -8 1 -17z"/>
<path d="M1649 3093 c-1 -5 0 -22 1 -40 1 -31 0 -32 -42 -35 -61 -4 -49 -22
18 -26 l57 -3 -6 38 c-4 21 -7 46 -7 56 0 16 -19 25 -21 10z"/>
<path d="M1770 2976 c0 -8 7 -17 16 -20 9 -4 14 -9 11 -12 -3 -3 -14 -1 -25 5
-15 8 -24 6 -43 -12 -13 -12 -28 -22 -33 -22 -5 0 -11 -17 -13 -39 -3 -32 -1
-37 13 -32 11 4 15 2 11 -8 -9 -22 42 -16 58 7 13 19 12 24 -11 48 -14 15 -23
32 -20 38 10 16 26 13 26 -4 0 -8 5 -15 11 -15 5 0 8 -4 5 -8 -2 -4 4 -13 15
-20 17 -11 19 -9 19 13 0 16 6 25 15 25 23 0 18 37 -7 54 -28 20 -48 20 -48 2z"/>
<path d="M1856 2817 c-22 -16 -18 -65 5 -80 25 -16 68 0 75 27 13 52 -36 85
-80 53z"/>
<path d="M1995 2809 c-4 -5 0 -18 9 -28 20 -22 20 -45 1 -61 -23 -19 -18 -28
19 -28 43 0 54 7 58 40 2 14 9 33 16 41 11 13 9 18 -10 31 -25 18 -83 21 -93
5z"/>
<path d="M3005 2929 c-4 -6 -14 -8 -22 -5 -22 9 -36 -3 -22 -20 9 -11 8 -18
-2 -30 -12 -15 -11 -16 7 -10 21 7 55 -21 67 -57 6 -16 11 -14 37 16 34 39 36
47 15 47 -30 0 -66 31 -60 51 7 20 -9 26 -20 8z"/>
<path d="M2840 2880 c-12 -7 -10 -12 12 -30 15 -11 30 -35 33 -53 7 -33 41
-77 58 -77 6 0 1 10 -10 23 -11 12 -25 38 -32 57 -6 19 -21 44 -33 57 -12 13
-17 23 -10 23 16 0 53 -51 59 -82 6 -30 49 -75 60 -64 5 4 -4 17 -20 28 -18
13 -27 29 -27 47 0 33 -34 81 -58 81 -9 0 -24 -4 -32 -10z"/>
<path d="M2769 2830 c-7 -49 -6 -69 7 -87 18 -29 26 -29 61 1 27 24 28 24 9
45 -11 12 -27 21 -36 21 -9 0 -21 5 -28 12 -7 7 -12 10 -13 8z"/>
<path d="M2682 2724 c-28 -19 -28 -55 -1 -80 19 -17 23 -17 47 -3 36 20 41 61
10 83 -28 20 -28 20 -56 0z"/>
<path d="M2494 2735 c4 -11 -2 -15 -21 -15 l-27 0 21 -19 c21 -19 22 -64 2
-77 -21 -13 -6 -21 39 -20 26 1 46 3 45 6 -1 3 -6 18 -12 33 -15 39 -14 42 12
60 l22 16 -29 0 c-21 1 -27 5 -22 16 4 10 -1 15 -15 15 -15 0 -19 -5 -15 -15z"/>
<path d="M2197 2723 c-14 -4 -17 -10 -12 -26 4 -12 9 -37 12 -54 4 -27 10 -33
29 -33 13 0 24 6 24 13 0 6 9 23 20 37 11 14 20 32 20 41 0 24 -45 34 -93 22z"/>
<path d="M2363 2716 c-13 -6 -23 -18 -23 -27 0 -9 -3 -30 -6 -48 -10 -47 17
-51 60 -7 l36 35 -18 30 c-19 34 -17 33 -49 17z"/>
<path d="M6352 2040 c-18 -4 -44 -18 -58 -31 -64 -60 -56 -229 14 -276 18 -11
46 -17 82 -17 98 0 143 51 144 164 1 72 -15 114 -54 141 -31 21 -84 29 -128
19z m82 -40 c34 -13 56 -59 56 -119 0 -62 -16 -98 -51 -117 -43 -22 -77 -17
-110 15 -29 30 -35 54 -30 131 5 77 65 117 135 90z"/>
<path d="M6955 2035 c-22 -8 -41 -15 -42 -15 -1 0 -11 -16 -24 -36 -17 -28
-22 -52 -22 -103 -1 -113 42 -165 138 -165 101 0 149 61 142 180 -5 98 -34
136 -112 148 -25 3 -55 0 -80 -9z m110 -47 c33 -29 48 -93 36 -150 -16 -72
-84 -109 -142 -78 -65 35 -66 199 0 235 38 21 76 18 106 -7z"/>
<path d="M3410 1880 l0 -160 25 0 25 0 0 160 0 160 -25 0 -25 0 0 -160z"/>
<path d="M3562 1890 c-29 -82 -51 -154 -47 -160 4 -6 57 -10 131 -10 115 0
124 1 124 19 0 10 -22 81 -50 157 -27 76 -50 139 -50 141 0 2 -12 3 -27 3 -27
0 -30 -6 -81 -150z m158 -132 c0 -4 -36 -8 -80 -8 -44 0 -80 1 -80 3 0 3 66
201 75 226 5 13 85 -197 85 -221z"/>
<path d="M3830 1880 c0 -153 1 -160 20 -160 18 0 20 7 20 59 l0 58 50 5 c85 8
126 70 95 144 -17 41 -46 54 -126 54 l-59 0 0 -160z m138 102 c34 -45 1 -102
-60 -102 l-38 0 0 58 c0 32 3 62 7 66 12 12 77 -4 91 -22z"/>
<path d="M4100 1940 c43 -87 50 -108 50 -160 0 -53 2 -60 20 -60 18 0 20 7 20
60 0 52 7 73 45 150 25 49 45 94 45 100 0 5 -9 10 -20 10 -15 0 -28 -17 -51
-70 -18 -38 -35 -70 -39 -70 -4 0 -21 32 -39 70 -26 60 -35 70 -56 70 l-25 0
50 -100z"/>
<path d="M4340 1880 c0 -153 1 -160 20 -160 18 0 20 8 22 133 l3 132 50 -130
c70 -179 76 -179 146 -1 30 75 56 136 59 136 3 0 4 -61 2 -136 l-4 -136 23 4
c22 3 22 5 22 158 l0 155 -34 0 -34 0 -50 -122 c-27 -68 -52 -123 -55 -123 -3
0 -25 51 -49 113 -24 61 -48 118 -54 125 -5 6 -22 12 -38 12 l-29 0 0 -160z"/>
<path d="M4841 2018 c-40 -106 -101 -281 -101 -288 0 -6 9 -10 20 -10 14 0 23
11 31 40 l12 41 70 -3 70 -3 12 -35 c8 -23 19 -36 33 -38 12 -2 22 1 22 6 0 5
-24 76 -53 158 -49 139 -55 149 -80 152 -21 3 -29 -2 -36 -20z m35 -176 c-26
-2 -50 -1 -52 1 -3 2 5 31 16 63 12 33 24 66 27 74 3 8 17 -18 31 -60 l27 -75
-49 -3z"/>
<path d="M5142 2023 c2 -12 14 -17 48 -17 l45 -1 3 -142 c2 -134 4 -143 22
-143 18 0 20 9 22 143 l3 142 45 1 c34 0 46 5 48 17 3 15 -10 17 -118 17 -108
0 -121 -2 -118 -17z"/>
<path d="M5430 1880 l0 -160 90 0 c73 0 90 3 90 15 0 12 -14 15 -70 15 l-70 0
0 60 0 59 57 3 c81 4 85 28 3 28 l-61 0 3 53 3 52 60 1 c47 1 61 5 63 18 3 14
-8 16 -82 16 l-86 0 0 -160z"/>
<path d="M5650 2034 c0 -3 18 -36 40 -73 22 -37 40 -72 40 -78 0 -6 -18 -42
-40 -81 -22 -38 -40 -72 -40 -76 0 -3 9 -6 20 -6 13 0 29 17 49 53 17 28 34
58 38 65 6 10 19 -6 43 -52 27 -51 40 -66 58 -66 12 0 22 3 22 8 0 4 -18 38
-40 76 -22 37 -40 73 -40 79 0 6 18 41 40 78 22 37 40 70 40 73 0 3 -10 6 -22
6 -18 0 -31 -15 -56 -60 -18 -33 -35 -60 -37 -60 -2 0 -18 27 -36 60 -25 47
-37 60 -55 60 -13 0 -24 -3 -24 -6z"/>
<path d="M5940 1881 c0 -154 1 -161 20 -161 18 0 20 8 22 129 l3 130 70 -127
c61 -110 74 -127 98 -130 l27 -3 0 160 c0 154 -1 161 -20 161 -19 0 -20 -7
-20 -127 l0 -128 -69 125 c-63 115 -71 125 -100 128 l-31 3 0 -160z"/>
<path d="M6663 2008 c-6 -18 -31 -90 -56 -160 l-46 -128 24 0 c22 0 28 11 66
130 23 72 44 130 48 130 4 0 26 -58 49 -130 40 -119 45 -130 67 -130 l24 0
-54 156 c-30 86 -55 158 -55 160 0 2 -13 4 -28 4 -23 0 -31 -6 -39 -32z"/>
<path d="M7220 1880 c0 -153 1 -160 20 -160 18 0 20 8 22 143 l3 142 60 1 c44
1 60 5 60 15 0 11 -20 15 -82 17 l-83 3 0 -161z"/>
<path d="M7430 1880 c0 -153 1 -160 20 -160 19 0 20 7 20 160 0 153 -1 160
-20 160 -19 0 -20 -7 -20 -160z"/>
<path d="M7618 1993 c-9 -27 -34 -99 -57 -160 -40 -113 -40 -113 -17 -113 18
0 26 9 36 40 l13 40 68 0 68 0 12 -40 c10 -32 17 -40 36 -40 12 0 23 2 23 4 0
4 -93 267 -105 299 -4 10 -18 17 -34 17 -24 0 -29 -6 -43 -47z m92 -145 c0 -4
-22 -8 -50 -8 -27 0 -50 4 -50 10 0 5 8 31 18 57 11 26 22 57 26 68 6 16 13 5
32 -49 13 -38 24 -73 24 -78z"/>
<path d="M7835 2030 c-8 -13 6 -37 50 -89 19 -24 35 -47 35 -53 0 -5 -20 -36
-45 -68 -25 -32 -45 -68 -45 -79 0 -20 6 -21 95 -21 78 0 95 3 95 15 0 12 -14
15 -70 15 -38 0 -70 3 -70 6 0 3 20 32 45 64 25 32 45 64 45 71 0 7 -18 34
-40 60 -22 26 -40 50 -40 54 0 4 28 5 62 4 52 -2 64 0 66 14 3 15 -8 17 -87
17 -49 0 -93 -4 -96 -10z"/>
<path d="M8200 1880 c0 -152 1 -160 20 -160 17 0 19 8 22 81 l3 81 59 -81 c45
-61 66 -81 83 -81 13 0 23 3 23 6 0 3 -27 41 -61 85 l-60 79 55 67 c31 37 56
71 56 75 0 4 -9 8 -20 8 -12 0 -41 -27 -77 -72 l-58 -72 -3 72 c-3 64 -5 72
-22 72 -19 0 -20 -8 -20 -160z"/>
<path d="M8486 1885 c-31 -86 -56 -158 -56 -161 0 -3 10 -4 22 -2 14 2 25 15
33 38 l12 35 70 3 70 3 12 -41 c10 -32 16 -40 36 -40 l24 0 -46 128 c-25 70
-50 142 -56 160 -8 26 -16 32 -37 32 -26 0 -30 -7 -84 -155z m111 28 c13 -36
23 -68 23 -70 0 -2 -25 -3 -55 -3 l-54 0 27 74 c14 41 28 73 31 70 2 -2 15
-34 28 -71z"/>
<path d="M8760 1880 c0 -153 1 -160 20 -160 19 0 20 7 20 160 0 153 -1 160
-20 160 -19 0 -20 -7 -20 -160z"/>
<path d="M9000 1880 l0 -160 90 0 c72 0 90 3 90 15 0 11 -16 15 -67 17 l-68 3
0 55 0 55 58 3 c41 2 57 7 57 17 0 10 -16 15 -57 17 l-58 3 0 50 0 50 65 1
c52 1 66 5 68 18 3 14 -9 16 -87 16 l-91 0 0 -160z"/>
<path d="M9250 1880 c0 -153 1 -160 20 -160 18 0 20 7 20 59 l0 58 51 5 c70 7
104 41 104 104 0 38 -5 50 -28 70 -24 20 -39 24 -98 24 l-69 0 0 -160z m138
102 c34 -45 1 -102 -60 -102 l-38 0 0 58 c0 32 3 62 7 66 12 12 77 -4 91 -22z"/>
<path d="M9517 2033 c-4 -3 -7 -75 -7 -160 l0 -153 90 0 c72 0 90 3 90 15 0
11 -16 15 -67 17 l-68 3 0 55 0 55 58 3 c41 2 57 7 57 17 0 10 -16 15 -57 17
l-58 3 0 50 0 50 65 1 c52 1 66 5 68 18 3 14 -8 16 -81 16 -46 0 -87 -3 -90
-7z"/>
<path d="M9730 2030 c0 -6 20 -51 45 -100 38 -77 45 -98 45 -150 0 -53 2 -60
20 -60 18 0 20 7 20 60 0 52 7 73 50 160 49 98 50 100 26 100 -19 0 -29 -13
-58 -76 l-35 -76 -36 76 c-28 58 -41 76 -57 76 -11 0 -20 -5 -20 -10z"/>
<path d="M10010 1880 c0 -153 1 -160 20 -160 19 0 20 7 20 133 l0 132 61 -110
c82 -150 86 -155 114 -155 l25 0 0 160 c0 153 -1 160 -20 160 -18 0 -20 -8
-22 -125 l-3 -124 -68 124 c-63 116 -70 125 -98 125 l-29 0 0 -160z"/>
<path d="M10359 1888 c-30 -83 -55 -155 -57 -160 -2 -4 7 -8 21 -8 19 0 26 8
36 40 l12 40 69 0 69 0 12 -40 c10 -33 17 -40 37 -40 15 0 22 5 20 13 -3 6
-29 78 -58 160 -50 140 -54 147 -79 147 -26 0 -30 -7 -82 -152z m106 32 c10
-30 20 -61 23 -67 3 -9 -10 -13 -47 -13 -28 0 -51 3 -51 7 0 21 45 142 51 136
3 -5 15 -33 24 -63z"/>
<path d="M10617 2033 c-14 -13 -6 -29 38 -83 25 -30 45 -58 45 -62 0 -5 -20
-34 -44 -65 -25 -32 -46 -67 -48 -78 -3 -19 3 -20 95 -23 82 -2 97 0 97 13 0
12 -14 15 -70 15 -38 0 -70 3 -70 6 0 3 20 32 45 64 25 32 45 64 45 71 0 7
-18 34 -40 60 -22 26 -40 50 -40 54 0 4 28 5 62 4 52 -2 64 0 66 14 3 15 -7
17 -86 17 -49 0 -92 -3 -95 -7z"/>
</g>
</svg>
