<?xml version="1.0" standalone="no"?>
<!DOCTYPE svg PUBLIC "-//W3C//DTD SVG 20010904//EN"
 "http://www.w3.org/TR/2001/REC-SVG-20010904/DTD/svg10.dtd">
<svg version="1.0" xmlns="http://www.w3.org/2000/svg"
 width="1110.000000pt" height="1110.000000pt" viewBox="0 0 1110.000000 1110.000000"
 preserveAspectRatio="xMidYMid meet">

<g transform="translate(0.000000,1110.000000) scale(0.100000,-0.100000)"
fill="#000000" stroke="none">
<path d="M1035 6726 c-313 -72 -584 -272 -755 -556 -98 -163 -139 -315 -147
-543 -8 -226 16 -357 97 -518 134 -271 386 -495 651 -579 217 -70 510 -70 733
-1 336 104 632 383 725 686 89 284 60 618 -77 890 -64 128 -113 197 -211 298
-157 161 -351 265 -586 313 -104 21 -356 27 -430 10z m155 -28 c0 -6 -11 -48
-25 -92 -13 -45 -35 -119 -48 -166 l-24 -85 -52 3 c-98 7 -222 -39 -310 -114
-21 -19 -41 -34 -43 -34 -3 0 -47 40 -99 90 l-94 89 45 41 c62 55 191 141 275
183 131 65 375 121 375 85z m90 6 l32 -7 -6 -126 c-3 -69 -6 -153 -6 -186 0
-86 -5 -89 -75 -65 -32 11 -65 20 -74 20 -45 1 -45 11 3 181 26 90 49 170 51
177 5 13 27 15 75 6z m233 -35 c136 -34 288 -104 387 -176 45 -33 120 -105
120 -115 0 -4 -38 -39 -86 -79 l-85 -72 -37 35 c-48 45 -125 100 -180 127 -61
31 -186 61 -246 60 -49 -1 -49 -2 19 -10 98 -13 189 -42 265 -86 64 -38 265
-226 308 -289 l21 -31 -82 -35 c-126 -55 -118 -55 -164 0 -23 27 -64 66 -93
88 l-51 39 26 18 c29 22 33 37 7 30 -23 -6 -46 21 -38 44 6 15 8 15 16 3 8
-12 10 -10 10 7 0 44 75 70 107 38 8 -9 18 -13 22 -10 8 9 -36 44 -65 51 -26
7 -106 -43 -125 -77 -9 -18 -6 -25 23 -49 24 -21 30 -31 22 -40 -8 -8 -33 3
-94 41 -46 28 -112 64 -147 80 -35 15 -63 34 -64 41 -1 19 3 127 6 178 2 25 4
85 4 133 l1 89 58 -7 c31 -3 92 -15 135 -26z m-930 -384 c48 -44 87 -84 87
-90 0 -6 -16 -27 -36 -46 -37 -35 -118 -148 -148 -206 -9 -18 -23 -33 -30 -33
-16 0 -216 67 -224 74 -7 7 61 148 99 203 59 88 141 184 153 181 7 -2 52 -39
99 -83z m1531 -5 c82 -108 111 -162 171 -311 l22 -56 -102 -36 -103 -35 -21
58 c-25 69 -99 183 -170 263 l-51 58 79 65 c44 35 83 69 86 74 9 15 36 -9 89
-80z m-917 34 c98 -28 223 -83 223 -97 0 -6 -25 -48 -56 -94 -59 -90 -60 -90
-124 -58 -77 39 -197 51 -290 30 -23 -5 -31 4 -87 90 l-63 95 50 25 c96 48
199 51 347 9z m-348 -134 c34 -49 61 -93 61 -97 0 -5 -12 -16 -28 -25 -15 -9
-49 -35 -75 -58 l-47 -42 -80 59 c-44 32 -79 63 -80 68 0 17 167 185 184 185
2 0 32 -40 65 -90z m672 -14 c251 -156 314 -259 314 -506 -1 -129 -12 -187
-57 -293 -18 -40 -24 -47 -42 -41 -16 5 -195 91 -203 98 0 0 10 35 24 76 21
63 25 89 21 160 -7 142 -73 250 -205 336 l-53 34 31 48 c17 26 42 66 57 90 15
23 30 42 34 42 4 0 40 -20 79 -44z m-468 -98 c17 -98 29 -200 23 -205 -3 -4
-17 -7 -30 -9 -40 -4 -94 -34 -121 -66 -19 -23 -30 -28 -47 -23 -39 11 -178
67 -178 71 0 3 11 22 25 45 60 95 146 166 238 200 74 26 84 25 90 -13z m150
-4 c151 -50 306 -177 341 -280 27 -77 31 -169 12 -244 -48 -185 -179 -300
-328 -287 -64 6 -147 41 -197 84 -40 35 -40 35 45 126 61 64 62 65 106 60 41
-5 47 -2 72 28 27 32 28 37 22 106 l-6 73 53 26 c87 44 178 96 174 100 -2 2
-56 -24 -121 -57 l-118 -61 -16 23 c-31 46 -71 79 -102 85 -17 4 -34 12 -38
18 -10 15 -42 218 -36 228 6 10 53 0 137 -28z m-525 -61 c39 -30 72 -55 72
-57 0 -2 -16 -30 -35 -62 -35 -58 -65 -139 -65 -176 0 -22 -4 -22 -35 -2 -28
18 -56 9 -30 -10 15 -11 15 -14 -2 -35 l-18 -22 -45 19 c-60 26 -78 47 -62 73
13 21 7 43 -9 34 -5 -4 -9 -25 -9 -49 0 -49 13 -65 78 -89 54 -22 72 -21 72 1
0 23 29 64 41 57 5 -4 9 -45 10 -93 0 -50 8 -116 19 -157 10 -38 17 -71 15
-73 -12 -13 -210 -71 -217 -64 -5 5 -18 54 -30 108 -36 175 -13 366 64 517 42
84 89 148 102 140 6 -4 44 -31 84 -60z m1388 -102 c14 -31 28 -74 31 -97 l5
-41 -121 -13 c-67 -7 -124 -11 -125 -9 -2 2 -13 40 -24 84 -11 44 -23 87 -26
95 -5 11 19 25 96 56 l103 42 18 -31 c10 -17 30 -55 43 -86z m-1716 27 c52
-17 98 -32 101 -34 4 -2 -4 -39 -18 -81 -29 -89 -41 -268 -25 -366 5 -32 6
-60 1 -62 -11 -7 -100 -23 -168 -31 l-59 -6 -9 48 c-12 75 -9 331 6 399 28
135 43 176 60 170 8 -3 58 -20 111 -37z m1969 -65 c19 -69 37 -207 37 -272
l-1 -63 -116 -5 -116 -5 -1 124 c-1 67 -3 138 -4 157 l-3 34 90 32 c50 18 93
33 97 34 4 0 12 -16 17 -36z m-1247 -36 c-8 -10 -7 -23 5 -50 14 -29 23 -37
44 -37 53 0 68 62 17 68 -15 2 -32 10 -38 18 -20 24 32 18 71 -9 89 -60 127
-193 73 -256 -34 -40 -65 -40 -99 1 -25 30 -27 38 -23 98 4 54 3 60 -6 37
l-10 -29 -106 4 -105 4 2 29 c4 59 92 135 157 135 22 0 26 -3 18 -13z m-199
-74 c20 -6 20 -6 4 -61 -19 -62 -6 -146 33 -223 18 -35 37 -67 44 -72 11 -8 7
-12 -115 -116 l-63 -53 -27 33 c-67 82 -112 282 -91 411 6 40 16 90 22 110
l11 37 82 -31 c45 -16 90 -33 100 -35z m1242 -58 c13 -109 -41 -301 -120 -426
-19 -30 -35 -57 -35 -61 0 -3 61 -38 135 -78 74 -39 135 -73 135 -77 0 -27
-196 -253 -219 -253 -17 0 -221 153 -221 165 0 6 25 39 56 75 91 107 119 151
103 160 -8 5 -51 34 -96 65 l-81 56 23 52 c31 68 55 189 55 276 0 38 4 72 8
75 4 2 46 8 92 11 47 4 87 9 89 11 2 2 19 4 37 4 31 0 32 -1 39 -55z m-1014
-43 c1 -4 2 -18 3 -32 2 -14 8 -35 15 -48 14 -26 11 -32 -45 -92 -23 -25 -52
-58 -66 -74 l-24 -28 -37 53 c-44 66 -67 127 -67 185 0 37 3 43 23 46 37 5
197 -3 198 -10z m1253 -179 c-3 -21 -10 -68 -15 -105 -12 -79 1 -73 -196 -83
l-122 -6 34 75 c19 41 39 93 45 115 l11 41 124 0 124 0 -5 -37z m-720 -113
c58 -28 106 -54 106 -58 0 -10 -103 -109 -160 -154 -69 -55 -163 -107 -242
-134 -110 -37 -104 -42 -100 89 2 61 5 117 7 123 2 6 25 14 52 18 67 9 143 55
188 115 22 28 40 51 41 51 1 0 49 -23 108 -50z m-1194 -53 c10 -31 37 -89 59
-127 23 -39 40 -74 37 -78 -3 -5 -44 -34 -91 -66 -47 -32 -84 -60 -81 -63 2
-3 46 23 96 58 l92 62 66 -70 c104 -109 251 -206 367 -243 22 -7 43 -14 46
-16 4 -2 -6 -52 -21 -111 l-27 -108 -33 3 c-41 3 -166 55 -245 101 -186 108
-372 310 -455 495 -36 81 -64 175 -55 184 7 7 193 41 214 39 7 -1 21 -28 31
-60z m551 46 c28 -34 132 -92 186 -104 l56 -13 -7 -89 c-3 -50 -6 -107 -6
-127 0 -38 0 -38 -37 -33 -110 13 -261 93 -351 186 l-44 45 87 76 c48 42 91
76 95 76 4 0 14 -8 21 -17z m-277 -58 c33 -64 147 -176 229 -226 31 -19 57
-36 57 -39 0 -3 -25 -37 -56 -75 -31 -39 -62 -79 -70 -89 -13 -19 -16 -18 -81
27 -99 67 -174 137 -230 214 -59 82 -102 164 -88 170 15 6 199 71 205 72 3 0
18 -24 34 -54z m1215 -126 c-5 -11 -43 -59 -84 -108 -40 -49 -73 -91 -72 -92
1 -2 1 -3 -1 -2 -2 1 -39 -28 -83 -63 -118 -95 -207 -135 -342 -154 -39 -6
-98 -8 -130 -4 l-59 7 4 103 c1 57 0 104 -4 104 -5 0 -8 -45 -8 -100 l0 -100
-29 0 c-48 0 -241 69 -241 86 0 8 51 75 111 147 l24 28 60 -21 c33 -12 79 -24
101 -26 135 -16 394 117 535 274 l54 60 87 -60 c77 -53 86 -62 77 -79z m391
103 c0 -5 -7 -29 -16 -55 -20 -58 -39 -62 -31 -8 4 29 1 41 -10 45 -26 10 -59
6 -79 -9 -19 -14 -19 -15 5 -34 19 -15 23 -24 18 -49 -4 -17 -2 -34 3 -37 6
-3 10 -1 10 4 0 6 9 11 19 11 11 0 21 6 24 13 2 6 7 9 11 5 4 -3 -2 -25 -14
-48 l-21 -41 -127 66 c-70 37 -128 68 -130 70 -2 2 4 17 12 34 16 29 19 30 94
34 166 7 232 7 232 -1z m-437 -402 c59 -44 107 -85 107 -90 0 -16 -156 -119
-241 -160 -72 -33 -258 -96 -264 -88 -8 11 -53 214 -49 220 3 4 12 8 20 8 44
0 272 137 299 179 3 6 10 11 14 11 4 0 56 -36 114 -80z m-724 -131 c70 -10
211 -6 245 7 11 4 20 -20 40 -102 14 -59 23 -110 21 -113 -21 -20 -261 -27
-382 -9 -94 13 -91 9 -67 102 35 140 34 138 51 131 9 -3 51 -10 92 -16z"/>
<path d="M1050 6634 c0 -8 -8 -14 -17 -14 -13 0 -14 -3 -6 -11 6 -6 9 -18 6
-25 -3 -8 0 -14 6 -14 6 0 11 -6 11 -14 0 -20 50 -15 75 7 17 15 18 19 5 27
-10 7 -11 10 -2 10 6 0 12 5 12 10 0 6 -6 10 -14 10 -8 0 -16 5 -18 11 -6 18
-58 21 -58 3z m40 -44 c0 -5 -4 -10 -10 -10 -5 0 -10 5 -10 10 0 6 5 10 10 10
6 0 10 -4 10 -10z"/>
<path d="M962 6565 c1 -64 4 -75 19 -75 21 0 36 20 22 29 -6 3 -13 32 -17 64
-10 82 -26 71 -24 -18z"/>
<path d="M877 6530 c6 -21 -12 -29 -19 -8 -3 7 -7 6 -11 -5 -4 -11 -1 -17 8
-17 9 0 15 -10 15 -25 0 -18 5 -25 19 -25 11 0 23 -4 26 -10 9 -15 25 -12 25
5 0 8 -4 15 -10 15 -5 0 -10 10 -10 23 0 24 -25 67 -40 67 -4 0 -6 -9 -3 -20z"/>
<path d="M742 6503 c-19 -7 -33 -39 -26 -58 15 -39 72 -36 94 5 8 15 6 24 -10
40 -20 20 -33 23 -58 13z"/>
<path d="M640 6410 c0 -11 -4 -20 -10 -20 -17 0 -11 -36 10 -55 11 -10 20 -24
20 -32 0 -20 37 -16 60 7 18 18 21 28 20 58 -1 4 -10 6 -21 4 -25 -4 -49 15
-49 39 0 11 -7 19 -15 19 -8 0 -15 -9 -15 -20z"/>
<path d="M1267 6580 c3 -11 7 -20 9 -20 2 0 4 9 4 20 0 11 -4 20 -9 20 -5 0
-7 -9 -4 -20z"/>
<path d="M1206 6522 c-8 -15 -23 -36 -35 -46 -12 -11 -21 -24 -21 -29 0 -6 3
-8 6 -4 4 3 14 -1 23 -10 15 -15 17 -13 27 33 7 27 15 57 19 67 11 28 -3 20
-19 -11z"/>
<path d="M1256 6518 c-3 -18 -8 -46 -10 -63 -3 -16 -7 -41 -10 -53 -4 -20 -3
-22 9 -12 8 7 15 25 15 41 0 15 5 31 10 34 6 4 8 11 5 16 -4 5 -2 9 3 9 11 0
3 48 -9 55 -4 3 -10 -9 -13 -27z"/>
<path d="M1350 6669 c0 -5 5 -7 10 -4 6 3 10 8 10 11 0 2 -4 4 -10 4 -5 0 -10
-5 -10 -11z"/>
<path d="M1340 6620 c0 -5 4 -10 9 -10 6 0 13 5 16 10 3 6 -1 10 -9 10 -9 0
-16 -4 -16 -10z"/>
<path d="M1432 6613 c-7 -6 -12 -23 -12 -36 0 -12 -5 -28 -11 -34 -6 -6 -8
-16 -5 -22 11 -17 72 -24 96 -11 l22 12 -21 19 c-25 23 -27 42 -6 59 8 7 15
16 15 20 0 13 -65 7 -78 -7z"/>
<path d="M1557 6592 c-38 -41 -2 -96 48 -74 29 13 37 45 18 71 -18 26 -45 27
-66 3z"/>
<path d="M1662 6511 c-47 -90 -47 -91 -29 -91 18 0 92 149 80 161 -6 6 -25
-20 -51 -70z"/>
<path d="M1335 6570 c-3 -5 1 -10 9 -10 8 0 18 5 21 10 3 6 -1 10 -9 10 -8 0
-18 -4 -21 -10z"/>
<path d="M1330 6520 c0 -5 6 -10 14 -10 8 0 18 5 21 10 3 6 -3 10 -14 10 -12
0 -21 -4 -21 -10z"/>
<path d="M1748 6508 c7 -7 12 -27 12 -45 0 -32 -2 -34 -32 -30 -18 2 -26 2
-16 0 22 -6 30 -30 12 -37 -12 -4 -12 -10 -4 -26 14 -26 30 -26 37 0 3 11 13
20 23 20 9 0 25 10 36 22 l19 21 -28 -18 c-15 -10 -30 -15 -34 -12 -9 9 38 53
65 62 36 11 21 15 -20 6 -35 -8 -37 -7 -47 20 -5 16 -16 29 -22 29 -10 0 -10
-3 -1 -12z"/>
<path d="M1332 6479 c2 -6 8 -10 13 -10 5 0 11 4 13 10 2 6 -4 11 -13 11 -9 0
-15 -5 -13 -11z"/>
<path d="M1366 6394 c-9 -8 -16 -22 -16 -29 0 -8 -8 -18 -17 -24 -17 -9 -17
-11 1 -30 22 -24 74 -37 89 -22 8 8 8 14 -1 23 -18 18 -14 45 9 62 12 8 18 19
14 26 -5 8 -10 8 -21 -1 -10 -8 -14 -8 -14 0 0 16 -26 13 -44 -5z"/>
<path d="M1514 6378 c-3 -5 -4 -12 -1 -15 11 -11 -16 -61 -36 -68 l-22 -6 22
-9 c15 -6 21 -15 17 -25 -4 -10 0 -15 10 -15 9 0 16 5 16 11 0 7 10 9 28 4 22
-5 25 -4 15 6 -19 19 -16 37 12 63 l25 24 -40 20 c-23 11 -43 16 -46 10z"/>
<path d="M1842 6339 c3 -62 21 -73 26 -16 3 36 4 37 43 37 21 0 39 5 39 10 0
6 -8 10 -17 10 -10 0 -35 3 -56 7 l-38 6 3 -54z"/>
<path d="M1775 6197 c-16 -12 -42 -26 -59 -32 -36 -12 -55 -40 -39 -56 9 -9
19 -6 42 10 17 13 31 28 31 34 0 7 14 24 32 39 40 33 35 36 -7 5z"/>
<path d="M1810 6130 c-19 -16 -43 -29 -52 -30 -24 0 -31 -16 -18 -40 10 -19
14 -17 65 34 30 30 55 57 55 60 0 13 -17 5 -50 -24z"/>
<path d="M1811 6057 c-5 -18 -12 -40 -16 -49 -5 -12 -3 -18 7 -18 7 0 19 14
25 31 10 25 16 30 30 24 33 -14 63 -17 63 -7 0 5 -22 19 -50 30 l-49 21 -10
-32z"/>
<path d="M491 6274 c-12 -15 -21 -30 -21 -35 0 -14 37 -29 70 -29 28 0 30 2
24 28 -7 28 -31 62 -45 62 -4 0 -17 -12 -28 -26z"/>
<path d="M409 6203 c-12 -14 -12 -17 1 -21 8 -3 27 -18 42 -34 28 -30 47 -35
66 -16 22 22 13 37 -38 63 -59 30 -54 29 -71 8z"/>
<path d="M380 6122 c0 -11 15 -26 38 -37 20 -11 40 -21 43 -23 4 -1 9 6 12 18
4 16 -3 24 -40 40 -55 24 -53 24 -53 2z"/>
<path d="M322 6073 c28 -33 28 -51 2 -68 -14 -9 -23 -19 -20 -22 3 -3 11 -1
18 4 7 6 25 13 41 17 24 6 27 4 27 -18 0 -14 5 -28 12 -32 7 -4 8 -3 4 5 -4 7
-5 19 -2 28 5 12 9 13 21 3 16 -14 35 -5 35 16 0 8 -9 14 -20 14 -11 0 -20 6
-20 13 0 18 -32 47 -51 47 -9 0 -7 -5 6 -12 21 -12 35 -28 35 -41 0 -13 -61
26 -71 46 -5 9 -15 17 -21 17 -7 0 -5 -7 4 -17z"/>
<path d="M2033 6273 c-7 -2 -13 -11 -13 -19 0 -16 -26 -19 -35 -4 -3 6 -11 10
-17 10 -6 0 -3 -9 8 -21 10 -12 14 -23 9 -27 -6 -4 -11 -24 -13 -44 -3 -37 -3
-38 31 -38 23 0 37 6 41 16 6 16 8 16 24 0 25 -22 39 -20 18 2 -15 18 -15 20
9 38 28 21 33 37 9 27 -22 -8 -67 36 -53 54 12 13 4 16 -18 6z"/>
<path d="M2075 6240 c-3 -6 1 -7 9 -4 18 7 21 14 7 14 -6 0 -13 -4 -16 -10z"/>
<path d="M2135 6100 c-11 -5 -33 -11 -48 -15 -24 -5 -28 -10 -25 -33 4 -37 28
-39 77 -5 53 36 50 76 -4 53z"/>
<path d="M2132 5974 c-12 -26 -2 -63 18 -65 6 -1 16 -2 23 -3 19 -3 47 25 47
49 0 49 -68 64 -88 19z"/>
<path d="M955 6299 c-4 -5 -14 -8 -22 -5 -21 8 -43 -12 -43 -38 0 -12 -5 -27
-12 -34 -28 -28 54 -63 88 -37 17 12 17 14 1 29 -21 21 -21 35 -2 63 9 13 11
24 6 28 -5 3 -13 0 -16 -6z"/>
<path d="M1011 6276 c-18 -33 0 -66 37 -66 49 0 69 42 36 74 -23 24 -59 20
-73 -8z"/>
<path d="M1217 6251 c-6 -24 -35 -28 -43 -6 -5 12 -10 13 -20 4 -20 -16 -17
-39 4 -39 15 -1 15 -2 -2 -15 -19 -15 -19 -15 3 -15 18 0 22 -4 18 -20 -6 -25
6 -26 29 -2 10 9 22 17 28 17 15 0 16 61 1 81 -11 15 -12 15 -18 -5z"/>
<path d="M1318 6185 c-6 -14 -15 -25 -20 -25 -12 0 -48 -38 -48 -52 0 -6 10
-2 23 10 13 12 28 22 33 22 5 0 17 16 26 35 8 19 12 35 7 35 -5 0 -15 -11 -21
-25z"/>
<path d="M767 6191 c5 -36 4 -38 -26 -44 -44 -9 -38 -23 8 -19 41 4 62 -11 42
-31 -6 -6 -11 -18 -11 -26 0 -11 5 -9 16 7 18 26 34 29 34 6 0 -11 5 -14 16
-10 9 3 18 6 20 6 2 0 4 7 4 15 0 8 -7 15 -15 15 -10 0 -15 10 -15 28 0 15 -8
36 -17 47 l-16 20 8 -20 c18 -48 18 -55 1 -49 -9 3 -16 12 -16 20 0 8 -4 14
-10 14 -5 0 -10 14 -10 30 0 17 -4 30 -9 30 -5 0 -7 -17 -4 -39z"/>
<path d="M660 6088 c1 -21 36 -57 63 -63 40 -11 39 10 -3 44 -41 33 -60 39
-60 19z"/>
<path d="M1411 6100 c-37 -31 -38 -39 -10 -74 24 -31 76 -38 60 -8 -11 21 5
46 37 56 25 8 30 26 7 26 -9 0 -18 6 -21 14 -8 21 -37 16 -73 -14z"/>
<path d="M1520 6040 c-29 -29 -7 -80 34 -80 45 0 62 52 28 83 -24 22 -38 21
-62 -3z"/>
<path d="M1680 5960 c0 -15 -58 -42 -65 -30 -11 18 -23 11 -18 -10 3 -11 0
-20 -6 -20 -6 0 -11 -7 -11 -16 0 -9 7 -14 18 -12 9 2 22 -3 29 -12 11 -13 12
-13 13 1 0 20 46 42 73 33 16 -5 19 -3 13 11 -3 9 -9 28 -12 41 -6 23 -34 35
-34 14z"/>
<path d="M1685 5816 c-33 -5 -62 -11 -64 -12 -2 -2 2 -17 9 -34 16 -39 47 -37
42 3 -3 21 1 27 17 27 11 0 22 -9 26 -20 3 -11 15 -20 26 -20 15 0 19 6 17 31
-1 17 -5 31 -8 33 -3 1 -32 -2 -65 -8z"/>
<path d="M1716 5699 c5 -8 0 -10 -17 -6 -28 7 -39 1 -56 -30 -17 -29 -16 -33
2 -33 8 0 15 4 15 9 0 6 15 7 33 5 20 -4 39 0 52 10 20 15 20 15 -2 16 -13 0
-23 5 -23 10 0 6 5 10 11 10 5 0 7 5 4 10 -3 6 -11 10 -16 10 -6 0 -7 -5 -3
-11z"/>
<path d="M1667 5575 c-22 -20 -33 -37 -26 -40 6 -4 22 4 36 16 l25 24 28 -33
c33 -40 51 -26 21 16 -37 53 -43 54 -84 17z"/>
<path d="M1640 5491 c0 -14 -6 -21 -20 -21 -12 0 -20 -7 -20 -16 0 -10 6 -14
15 -10 11 4 15 -2 15 -22 1 -23 2 -25 11 -9 12 20 68 20 76 0 10 -25 32 -14
29 15 -2 15 1 32 6 39 15 18 -6 24 -43 11 -29 -10 -34 -9 -51 12 -18 22 -18
22 -18 1z"/>
<path d="M1003 5984 c-12 -26 -1 -32 26 -15 12 8 12 11 0 24 -13 12 -16 11
-26 -9z"/>
<path d="M865 5969 c16 -51 56 -129 65 -129 13 0 13 6 -6 41 -8 17 -14 33 -11
35 2 2 20 -3 40 -11 54 -23 47 2 -8 26 -25 11 -49 29 -55 39 -14 27 -33 26
-25 -1z"/>
<path d="M1010 5950 c-13 -9 -13 -11 0 -20 19 -13 33 -13 25 0 -3 6 -1 10 4
10 6 0 11 5 11 10 0 13 -21 13 -40 0z"/>
<path d="M750 5866 c0 -7 21 -21 46 -31 25 -9 48 -23 51 -31 8 -20 31 -17 43
6 6 11 7 21 3 21 -4 1 -17 3 -28 4 -11 1 -39 12 -62 24 -50 25 -53 25 -53 7z"/>
<path d="M1151 6044 c0 -11 3 -14 6 -6 3 7 2 16 -1 19 -3 4 -6 -2 -5 -13z"/>
<path d="M1141 5998 c0 -14 -6 -28 -11 -30 -6 -2 -13 -20 -17 -41 -5 -33 -3
-37 15 -37 25 0 35 38 23 95 -7 31 -9 34 -10 13z"/>
<path d="M1250 5951 c0 -5 -13 -11 -30 -14 -25 -6 -30 -11 -30 -36 0 -23 6
-31 29 -39 34 -12 41 -8 41 24 0 12 7 30 16 38 8 9 12 20 9 26 -8 12 -35 13
-35 1z"/>
<path d="M1350 5919 c0 -6 -7 -8 -16 -5 -13 5 -15 2 -11 -14 3 -13 0 -20 -9
-20 -8 0 -14 -4 -14 -10 0 -5 5 -10 10 -10 6 0 10 -8 8 -17 -2 -11 2 -17 11
-15 8 2 18 -3 23 -10 8 -10 11 -10 15 0 2 6 11 12 19 12 8 0 14 6 14 14 0 8 6
17 13 20 10 5 10 7 0 12 -7 3 -13 10 -13 16 0 11 -29 37 -42 38 -5 0 -8 -5 -8
-11z m20 -49 c0 -5 -4 -10 -10 -10 -5 0 -10 5 -10 10 0 6 5 10 10 10 6 0 10
-4 10 -10z"/>
<path d="M1430 5799 c-28 -11 -40 -26 -40 -51 0 -11 5 -15 14 -12 20 8 46 -23
46 -54 1 -25 2 -25 14 -9 7 9 18 17 23 17 17 0 23 41 10 64 -7 12 -12 28 -12
36 0 18 -22 22 -55 9z"/>
<path d="M1317 5699 c-30 -42 12 -92 59 -70 18 8 24 19 24 40 0 49 -56 69 -83
30z"/>
<path d="M1397 5609 c7 -7 8 -21 3 -40 -8 -28 3 -49 15 -29 10 17 67 12 81 -7
12 -17 13 -16 14 5 0 13 6 22 15 22 8 0 15 7 15 15 0 9 -6 12 -15 9 -11 -4
-15 1 -16 17 0 13 -3 18 -6 12 -6 -15 -69 -17 -78 -3 -3 6 -14 10 -23 10 -12
0 -13 -3 -5 -11z"/>
<path d="M1367 5489 c-15 -16 -27 -31 -27 -33 0 -2 12 -7 27 -11 39 -9 54 -25
48 -46 -8 -23 10 -25 19 -3 5 13 9 14 21 4 17 -14 16 -15 20 28 2 20 -2 32 -9
31 -27 -3 -37 3 -54 30 l-18 29 -27 -29z"/>
<path d="M1112 5478 c-8 -8 -8 -15 -1 -24 7 -9 7 -19 -1 -33 -8 -17 -15 -19
-29 -11 -15 8 -20 6 -24 -10 -7 -25 42 -63 63 -50 12 7 12 12 2 22 -19 19 -14
30 10 22 19 -6 21 -5 11 8 -16 19 -4 32 14 16 11 -9 17 -9 24 3 13 21 11 26
-20 48 -34 25 -34 24 -49 9z"/>
<path d="M1231 5460 c-9 -5 -10 -13 -3 -26 5 -11 7 -24 5 -31 -2 -6 1 -14 8
-18 7 -5 10 -3 7 6 -3 8 1 26 8 41 11 21 11 27 0 31 -7 3 -18 2 -25 -3z"/>
<path d="M1296 5410 c-8 -17 13 -72 25 -65 5 4 14 -4 19 -17 9 -20 9 -18 4 10
-3 20 -2 32 5 32 6 0 11 5 11 11 0 6 -7 9 -15 6 -8 -4 -17 -2 -20 3 -4 6 -1
10 4 10 6 0 11 4 11 8 0 9 -40 11 -44 2z"/>
<path d="M1236 5355 c4 -8 8 -15 10 -15 2 0 4 7 4 15 0 8 -4 15 -10 15 -5 0
-7 -7 -4 -15z"/>
<path d="M1236 5315 c4 -8 8 -15 10 -15 2 0 4 7 4 15 0 8 -4 15 -10 15 -5 0
-7 -7 -4 -15z"/>
<path d="M580 5981 c0 -66 4 -70 57 -57 59 15 74 42 18 32 -41 -8 -55 2 -55
42 0 12 -4 22 -10 22 -5 0 -10 -18 -10 -39z"/>
<path d="M525 5899 c-4 -5 2 -12 12 -16 34 -12 78 -33 96 -45 14 -11 19 -10
27 2 14 22 7 35 -21 36 -13 1 -43 8 -66 17 -26 10 -45 12 -48 6z"/>
<path d="M488 5823 c7 -3 16 -2 19 1 4 3 -2 6 -13 5 -11 0 -14 -3 -6 -6z"/>
<path d="M561 5811 c-23 -14 35 -46 77 -42 14 1 17 27 4 35 -18 11 -68 15 -81
7z"/>
<path d="M560 5575 c0 -19 -60 -21 -78 -3 -7 7 -12 8 -13 3 -2 -16 3 -80 5
-83 2 -1 20 5 41 14 36 15 40 15 51 0 15 -22 24 -20 24 4 0 11 5 20 10 20 6 0
10 7 10 16 0 10 -6 14 -15 10 -10 -4 -15 1 -15 14 0 11 -4 20 -10 20 -5 0 -10
-7 -10 -15z"/>
<path d="M565 5448 c-8 -18 -18 -23 -48 -22 -38 1 -52 -18 -22 -30 8 -3 15
-12 15 -20 0 -16 27 -29 42 -20 6 4 24 7 39 6 23 0 29 4 30 21 2 36 -2 51 -18
70 -21 22 -26 22 -38 -5z"/>
<path d="M1895 5945 c-22 -8 -41 -15 -42 -15 -7 0 -2 -30 6 -34 12 -8 91 37
91 52 0 15 -5 15 -55 -3z"/>
<path d="M1990 5886 c0 -22 -40 -64 -47 -48 -2 7 -14 17 -26 24 -22 11 -22 11
-3 -11 20 -22 20 -22 0 -27 -11 -3 -20 -14 -21 -25 -2 -21 17 -25 35 -7 8 8
12 8 12 1 0 -14 45 -22 62 -12 8 6 2 9 -19 9 -18 0 -33 5 -33 10 0 10 30 14
85 12 29 -2 29 -2 -8 14 -25 11 -36 21 -33 30 3 8 9 21 12 29 3 8 1 15 -5 15
-6 0 -11 -6 -11 -14z"/>
<path d="M300 5908 c0 -6 -11 -8 -27 -5 l-28 6 28 -12 c16 -6 25 -17 23 -24
-3 -7 1 -13 10 -13 8 0 12 5 9 10 -3 6 -1 10 4 10 6 0 11 -8 11 -17 0 -15 2
-16 9 -3 6 8 7 18 5 22 -3 4 3 5 12 1 11 -4 15 -3 11 4 -10 17 -67 34 -67 21z"/>
<path d="M325 5819 c-16 -5 -47 -7 -67 -4 -21 3 -38 2 -38 -3 0 -7 130 -82
144 -82 19 0 1 22 -31 39 l-38 19 34 9 c19 5 36 14 39 21 4 14 -2 14 -43 1z"/>
<path d="M220 5697 c0 -22 4 -25 38 -25 21 0 44 -2 51 -4 7 -2 15 4 16 14 2
12 -7 18 -34 23 -20 3 -44 8 -53 11 -14 4 -18 -1 -18 -19z"/>
<path d="M216 5608 c-27 -38 9 -77 58 -64 36 9 44 45 16 68 -30 24 -56 23 -74
-4z"/>
<path d="M300 5505 c0 -17 -36 -39 -51 -30 -5 4 -18 4 -27 0 -16 -6 -16 -7 0
-16 9 -5 15 -16 12 -24 -7 -17 24 -26 76 -22 32 2 35 6 38 36 2 21 -3 40 -14
52 -20 23 -34 24 -34 4z"/>
<path d="M2216 5803 c2 -43 3 -43 27 -34 33 13 19 60 -18 61 -6 0 -10 -12 -9
-27z"/>
<path d="M2164 5708 c-6 -7 -11 -23 -12 -36 -1 -19 2 -21 13 -12 10 8 33 10
70 5 57 -7 95 -1 95 16 0 5 -12 7 -27 4 l-28 -5 28 11 c15 6 27 15 27 21 0 6
-7 7 -17 2 -20 -8 -37 -8 -99 2 -28 4 -43 2 -50 -8z m69 -15 c-7 -2 -19 -2
-25 0 -7 3 -2 5 12 5 14 0 19 -2 13 -5z"/>
<path d="M2206 5619 c-10 -6 -26 -19 -36 -29 -17 -17 -17 -18 7 -29 13 -6 37
-11 53 -11 32 0 36 11 24 58 -7 24 -19 27 -48 11z"/>
<path d="M953 5723 c9 -2 23 -2 30 0 6 3 -1 5 -18 5 -16 0 -22 -2 -12 -5z"/>
<path d="M1006 5721 c-8 -12 14 -27 50 -34 26 -5 33 -2 37 13 3 11 -1 21 -10
24 -23 9 -71 7 -77 -3z"/>
<path d="M1180 5679 c0 -6 -7 -8 -16 -5 -13 5 -15 2 -11 -14 3 -13 0 -20 -9
-20 -8 0 -14 -4 -14 -10 0 -5 5 -10 10 -10 6 0 10 -7 10 -15 0 -8 6 -15 14
-15 8 0 17 -6 20 -12 5 -10 7 -10 12 0 3 6 11 12 17 12 7 0 18 10 26 21 11 18
11 23 0 30 -8 4 -10 11 -6 15 4 4 -5 13 -19 21 -32 16 -34 16 -34 2z m20 -49
c0 -5 -4 -10 -10 -10 -5 0 -10 5 -10 10 0 6 5 10 10 10 6 0 10 -4 10 -10z"/>
<path d="M744 5748 c-4 -6 -3 -9 2 -6 13 8 54 -9 54 -22 0 -15 -59 -2 -78 16
-7 8 -18 14 -25 14 -6 0 -4 -5 4 -12 36 -31 41 -45 24 -72 -22 -33 -13 -33 19
-1 27 27 59 34 50 12 -3 -8 1 -19 9 -25 11 -9 13 -6 10 21 -3 23 -2 28 5 18
14 -19 42 -6 42 19 0 22 -20 26 -38 8 -9 -9 -12 -8 -12 4 0 20 -56 42 -66 26z"/>
<path d="M809 5596 c-2 -2 -35 -6 -74 -8 -52 -4 -70 -9 -70 -19 0 -8 7 -12 15
-10 16 4 73 8 133 10 26 1 37 6 37 16 0 13 -30 21 -41 11z"/>
<path d="M720 5510 c-25 -25 -25 -32 -2 -60 14 -18 25 -21 45 -16 38 9 48 53
17 78 -28 23 -35 23 -60 -2z"/>
<path d="M830 5427 c0 -29 -18 -47 -47 -47 -13 0 -23 -4 -23 -10 0 -5 7 -10
15 -10 8 0 15 -6 15 -14 0 -22 31 -28 56 -11 13 8 30 15 39 15 24 0 18 48 -10
75 -30 31 -45 32 -45 2z"/>
<path d="M1986 5701 c-3 -5 -21 -7 -40 -4 -41 4 -53 -17 -36 -63 17 -43 50
-60 50 -25 0 22 30 35 60 26 14 -5 20 -2 20 9 0 9 -4 16 -10 16 -5 0 -10 9
-10 19 0 20 -26 36 -34 22z"/>
<path d="M1940 5551 c-16 -31 -12 -49 14 -66 45 -30 91 16 61 61 -19 29 -60
32 -75 5z"/>
<path d="M1920 5450 c0 -5 -6 -7 -13 -4 -7 2 -21 -2 -32 -10 -16 -12 -17 -15
-4 -16 26 0 39 -21 27 -43 -7 -15 -7 -22 3 -28 21 -13 27 -11 31 14 2 16 11
23 37 27 l33 5 -22 20 c-12 11 -25 19 -29 18 -3 -1 -5 5 -3 13 2 8 -4 14 -13
14 -8 0 -15 -4 -15 -10z"/>
<path d="M1946 5365 c4 -8 10 -15 15 -15 4 0 6 7 3 15 -4 8 -10 15 -15 15 -4
0 -6 -7 -3 -15z"/>
<path d="M1836 5328 c12 -5 26 -20 32 -33 6 -13 23 -25 43 -29 40 -8 50 0 17
13 -14 5 -37 21 -51 35 -15 14 -34 26 -44 25 -15 0 -15 -2 3 -11z"/>
<path d="M2011 5117 c-13 -13 -15 -28 -3 -26 27 5 34 -3 29 -29 -5 -23 -2 -28
16 -29 15 -2 18 0 8 6 -7 5 -9 11 -4 14 5 4 25 -7 44 -23 35 -30 59 -38 59
-19 0 5 -4 8 -9 5 -4 -3 -16 3 -26 14 -17 19 -16 19 19 13 24 -4 36 -2 36 6 0
7 -5 9 -11 6 -11 -8 -119 42 -119 55 0 14 -27 19 -39 7z"/>
<path d="M1966 5014 c-13 -33 -4 -43 49 -60 45 -14 58 -15 68 -4 9 10 9 14 -1
17 -8 3 -29 18 -47 34 -37 32 -60 37 -69 13z"/>
<path d="M1918 4934 c5 -25 25 -47 48 -50 7 -1 26 -11 42 -22 27 -20 28 -20
40 -2 10 16 9 18 -5 13 -11 -4 -14 -3 -9 5 4 7 1 12 -9 12 -9 0 -26 10 -38 23
-13 12 -34 27 -48 34 -24 10 -26 10 -21 -13z"/>
<path d="M1036 5641 c-3 -5 -25 -7 -48 -6 -24 1 -31 0 -15 -2 15 -2 27 -8 27
-14 0 -9 -31 -13 -85 -11 -30 2 -29 2 8 -14 36 -16 37 -18 31 -53 l-6 -36 22
43 c23 44 37 52 46 28 3 -8 13 -17 22 -21 14 -5 15 -4 5 6 -20 20 -17 50 4 42
10 -4 14 -2 9 5 -3 6 -2 13 4 17 11 7 4 25 -10 25 -5 0 -11 -4 -14 -9z"/>
<path d="M1013 5499 c-63 -49 -76 -69 -48 -69 8 0 15 4 15 10 0 5 12 16 28 24
15 8 40 26 56 40 16 14 33 26 38 26 4 0 8 5 8 10 0 23 -39 6 -97 -41z"/>
<path d="M2224 5468 c-3 -10 0 -26 6 -34 11 -12 15 -11 31 7 25 29 24 36 -6
41 -18 4 -26 0 -31 -14z"/>
<path d="M2142 5410 c-8 -13 -8 -22 2 -35 12 -17 14 -17 35 4 24 24 22 36 -7
43 -11 3 -23 -2 -30 -12z"/>
<path d="M2218 5358 c-35 -12 -35 -21 -3 -36 41 -19 55 -15 53 13 -3 30 -14
35 -50 23z"/>
<path d="M1510 5336 c-13 -26 -8 -56 10 -56 5 0 10 6 10 14 0 8 4 17 9 20 5 4
7 -3 4 -15 -7 -25 47 -79 74 -74 10 2 24 4 32 4 7 1 11 7 7 16 -3 10 1 15 12
16 9 0 12 3 5 5 -7 3 -9 12 -6 20 3 9 -5 17 -22 24 -23 9 -30 7 -41 -7 -7 -10
-14 -24 -14 -32 0 -8 -6 -11 -16 -7 -9 3 -18 6 -20 6 -2 0 -4 5 -4 10 0 6 5
10 11 10 7 0 20 10 31 23 l20 22 -26 3 c-14 2 -26 8 -26 13 0 19 -37 8 -50
-15z"/>
<path d="M1425 5240 c3 -5 22 -10 42 -10 l36 0 -7 -40 c-4 -23 -2 -40 3 -40
10 0 15 13 26 68 l7 32 -57 0 c-35 0 -54 -4 -50 -10z"/>
<path d="M1330 5168 l0 -42 -29 28 c-45 43 -54 21 -10 -25 21 -23 39 -50 39
-60 0 -11 5 -19 10 -19 6 0 10 33 10 80 0 47 -4 80 -10 80 -5 0 -10 -19 -10
-42z"/>
<path d="M1380 5198 c0 -17 66 -95 74 -87 3 3 3 20 0 37 -4 22 -16 36 -37 47
-36 18 -37 18 -37 3z"/>
<path d="M300 5318 c0 -11 -10 -18 -27 -21 -27 -4 -27 -4 4 -6 17 0 33 -7 36
-13 2 -7 7 -10 11 -7 3 3 0 19 -9 35 -9 18 -15 23 -15 12z"/>
<path d="M323 5318 c3 -17 27 -42 33 -35 7 6 -18 47 -28 47 -5 0 -7 -6 -5 -12z"/>
<path d="M350 5320 c0 -5 5 -10 10 -10 6 0 10 5 10 10 0 6 -4 10 -10 10 -5 0
-10 -4 -10 -10z"/>
<path d="M299 5224 c-6 -8 -18 -14 -25 -14 -8 0 -14 -4 -14 -10 0 -14 13 -12
36 4 10 8 30 12 44 10 14 -3 33 1 43 8 15 11 12 13 -28 14 -27 1 -49 -4 -56
-12z"/>
<path d="M356 5145 c17 -26 16 -26 -24 -37 -9 -2 -8 -9 4 -26 15 -22 17 -22
31 -5 14 17 14 17 10 -4 -3 -13 -1 -23 4 -23 8 0 13 15 10 33 -2 13 17 7 23
-8 10 -27 29 -17 22 13 -4 15 -7 37 -7 48 0 16 -7 23 -30 28 -57 11 -61 9 -43
-19z"/>
<path d="M540 4980 l0 -40 -40 0 c-59 0 -49 -17 13 -22 28 -2 54 -3 56 -2 7 6
-11 104 -20 104 -5 0 -9 -18 -9 -40z"/>
<path d="M654 4909 c-3 -6 2 -17 12 -25 11 -9 13 -12 6 -9 -18 9 -62 -3 -62
-17 0 -9 3 -9 12 0 14 14 32 16 23 2 -3 -5 5 -21 18 -36 21 -22 25 -24 31 -9
3 9 4 21 0 26 -3 5 2 9 10 9 9 0 16 6 16 13 0 30 -53 67 -66 46z"/>
<path d="M573 4835 c4 -8 2 -17 -3 -20 -15 -9 -4 -40 14 -37 9 2 15 -3 14 -10
-3 -15 30 -12 50 4 19 16 14 35 -14 57 -31 25 -69 28 -61 6z"/>
<path d="M734 4749 c-23 -25 -14 -62 18 -73 34 -12 58 6 58 44 0 46 -45 64
-76 29z"/>
<path d="M870 4745 c-10 -12 -9 -16 4 -21 20 -8 21 -47 1 -64 -8 -7 -13 -15
-11 -19 4 -5 43 -6 76 -2 6 0 10 14 10 30 0 17 5 33 10 36 20 12 9 33 -21 44
-42 15 -54 14 -69 -4z"/>
<path d="M915 5290 c-24 -26 -16 -63 17 -74 36 -13 67 13 60 49 -7 41 -50 55
-77 25z"/>
<path d="M1018 5215 c-21 -18 -38 -38 -38 -44 0 -5 -3 -18 -7 -28 -6 -16 -5
-16 10 -4 9 7 17 20 17 27 0 7 11 21 24 29 13 9 26 25 29 35 3 11 4 20 4 20
-1 0 -19 -16 -39 -35z"/>
<path d="M1080 5182 c0 -5 7 -16 16 -23 15 -12 14 -15 -7 -32 -21 -17 -21 -19
-5 -35 16 -16 18 -16 35 7 16 21 20 22 39 10 27 -17 37 -7 21 23 -7 12 -12 29
-11 36 2 6 -1 12 -5 13 -4 0 -25 2 -45 5 -21 3 -38 0 -38 -4z"/>
<path d="M1130 5090 c0 -11 5 -20 10 -20 6 0 10 9 10 20 0 11 -4 20 -10 20 -5
0 -10 -9 -10 -20z"/>
<path d="M654 5290 c-6 -6 -25 -12 -42 -15 -36 -4 -88 -40 -73 -50 6 -3 18 3
28 15 10 11 30 20 45 20 23 0 58 22 58 36 0 7 -5 5 -16 -6z"/>
<path d="M626 5202 c-12 -15 -13 -21 -3 -32 10 -10 9 -12 -5 -7 -10 4 -18 2
-18 -3 0 -5 9 -12 21 -15 19 -6 20 -8 3 -26 -16 -18 -16 -19 2 -19 11 0 30 8
43 17 14 9 21 11 17 5 -4 -7 -1 -12 7 -12 13 0 27 40 27 78 0 14 -2 14 -17 0
-20 -17 -43 -13 -43 7 0 23 -16 26 -34 7z"/>
<path d="M736 5094 c-30 -30 -9 -84 33 -84 41 0 58 70 22 90 -27 14 -37 13
-55 -6z"/>
<path d="M851 5043 c4 -40 -2 -54 -26 -63 -14 -5 -25 -15 -25 -21 0 -6 7 -8
15 -5 9 3 18 -1 21 -9 8 -20 44 -13 65 13 9 12 22 22 28 22 19 0 12 30 -14 55
-29 30 -67 34 -64 8z"/>
<path d="M1765 5245 c-14 -13 -25 -36 -25 -50 0 -24 3 -26 29 -20 28 6 61 -13
61 -37 0 -15 25 -3 26 13 0 8 2 16 4 19 13 24 4 50 -21 61 -16 6 -29 18 -29
25 0 21 -18 17 -45 -11z"/>
<path d="M1712 5128 c-7 -7 -12 -21 -12 -33 0 -28 19 -45 50 -45 33 0 56 40
40 71 -12 22 -59 26 -78 7z"/>
<path d="M1630 5059 c0 -6 -9 -9 -20 -6 -24 6 -38 -12 -19 -24 11 -8 10 -12
-5 -24 -23 -17 -46 -20 -46 -5 0 6 -7 10 -16 10 -10 0 -14 -5 -10 -15 4 -10
-2 -19 -17 -25 -15 -6 -17 -9 -5 -9 20 -1 39 -52 27 -74 -10 -17 5 -34 16 -17
3 5 19 10 36 10 19 0 29 5 29 15 0 8 -4 15 -8 15 -7 0 -32 42 -32 54 0 2 11
11 25 20 23 15 27 15 50 0 14 -9 25 -25 25 -35 0 -11 5 -19 10 -19 6 0 10 5
10 10 0 6 9 20 20 32 27 29 26 32 -12 43 -23 7 -34 17 -36 33 -3 22 -22 32
-22 11z"/>
<path d="M1009 4990 c-1 -5 -2 -16 -3 -22 0 -7 -11 -32 -25 -56 -17 -31 -21
-46 -13 -54 8 -8 15 -1 25 24 8 19 26 47 41 62 24 27 25 30 8 42 -21 16 -31
17 -33 4z"/>
<path d="M1086 4942 c-11 -13 -19 -39 -20 -70 -1 -26 -5 -52 -8 -58 -3 -5 4
-9 15 -9 19 0 22 6 23 44 1 24 6 46 11 50 5 3 6 19 3 35 l-5 28 -19 -20z"/>
<path d="M1400 4934 c0 -14 4 -23 10 -19 6 3 10 2 10 -4 0 -5 -6 -11 -12 -14
-7 -2 -10 -8 -5 -12 9 -11 58 15 51 27 -3 4 -10 6 -15 3 -5 -4 -9 -2 -9 4 0 5
6 12 13 15 6 4 2 4 -10 2 -15 -3 -20 0 -16 10 3 8 0 14 -6 14 -6 0 -11 -12
-11 -26z"/>
<path d="M1315 4940 c-4 -6 -1 -17 5 -25 7 -8 13 -29 15 -47 1 -18 7 -34 13
-36 7 -2 8 6 3 25 -8 27 -8 40 0 72 5 18 -26 27 -36 11z"/>
<path d="M1200 4931 c0 -5 -3 -16 -6 -25 -4 -12 0 -16 15 -16 17 0 21 -6 21
-29 0 -24 -3 -28 -20 -24 -22 6 -26 -7 -8 -25 18 -18 78 -16 78 3 0 8 -7 15
-15 15 -18 0 -20 26 -2 33 7 3 4 6 -6 6 -24 1 -11 21 14 21 21 0 23 8 10 29
-5 7 -15 11 -22 9 -8 -3 -24 -1 -36 3 -13 5 -23 5 -23 0z"/>
<path d="M1431 4854 c0 -11 3 -14 6 -6 3 7 2 16 -1 19 -3 4 -6 -2 -5 -13z"/>
<path d="M1340 4813 c0 -4 5 -15 10 -23 8 -13 10 -13 10 2 0 9 -4 20 -10 23
-5 3 -10 3 -10 -2z"/>
<path d="M2072 5238 c-28 -28 -7 -78 33 -78 29 0 45 19 45 51 0 37 -51 54 -78
27z"/>
<path d="M1825 4859 c-4 -6 -14 -8 -22 -5 -23 9 -36 -4 -21 -22 10 -12 10 -16
1 -19 -20 -7 -15 -25 5 -19 20 6 62 -26 62 -48 0 -9 5 -16 10 -16 6 0 10 6 10
13 0 7 12 20 26 28 l26 16 -38 19 c-29 14 -39 25 -38 42 1 23 -10 29 -21 11z"/>
<path d="M1678 4816 c-17 -12 -17 -14 2 -31 11 -10 25 -35 30 -56 6 -21 20
-45 32 -53 31 -22 36 -11 9 18 -13 14 -21 31 -18 38 4 9 6 9 6 -3 1 -19 45
-62 54 -53 3 4 -5 15 -18 26 -16 12 -25 30 -25 47 0 46 -44 87 -72 67z m50
-61 c-3 -3 -9 2 -12 12 -6 14 -5 15 5 6 7 -7 10 -15 7 -18z"/>
<path d="M1597 4732 c-5 -26 15 -72 31 -72 4 0 19 10 34 23 33 26 27 40 -24
61 -36 15 -36 15 -41 -12z"/>
<path d="M1523 4668 c-46 -22 -26 -92 25 -86 37 4 53 49 27 78 -20 23 -22 23
-52 8z"/>
<path d="M1340 4675 c0 -9 -9 -15 -22 -15 -21 -1 -21 -2 -5 -11 18 -11 24 -64
7 -74 -21 -13 -8 -22 35 -23 41 -2 58 9 36 22 -16 10 -19 57 -5 63 19 7 18 23
-1 23 -8 0 -15 7 -15 15 0 8 -7 15 -15 15 -8 0 -15 -7 -15 -15z"/>
<path d="M1231 4666 c-7 -9 -19 -16 -26 -16 -8 0 -14 -16 -17 -39 -7 -73 6
-78 58 -25 32 32 34 37 21 52 -8 9 -16 23 -19 31 -3 10 -6 10 -17 -3z"/>
<path d="M1051 4662 c-10 -7 -10 -14 -2 -30 6 -11 11 -32 11 -46 0 -21 5 -26
24 -26 14 0 26 7 29 18 3 9 14 29 23 44 10 15 15 30 12 33 -11 11 -83 16 -97
7z"/>
<path d="M7160 6713 c138 -105 220 -282 220 -473 l0 -60 185 0 185 0 2 -852 3
-853 295 0 295 0 5 850 5 850 188 3 187 2 -2 278 -3 277 -800 2 -800 3 35 -27z"/>
<path d="M3107 4074 c-28 -15 -47 -49 -47 -84 0 -28 48 -76 100 -103 56 -28
73 -66 45 -98 -20 -21 -55 -22 -127 -4 -34 9 -37 -6 -8 -35 23 -23 106 -28
143 -9 52 26 70 80 46 133 -6 13 -34 36 -63 52 -92 49 -109 79 -61 110 22 14
32 15 64 5 50 -14 51 -14 51 8 0 37 -92 53 -143 25z"/>
<path d="M5115 4076 c-70 -31 -105 -112 -91 -213 13 -94 58 -133 155 -133 56
0 64 3 100 36 31 27 42 47 51 87 12 59 1 142 -25 181 -32 48 -128 69 -190 42z
m114 -41 c16 -8 34 -29 42 -47 29 -69 7 -182 -40 -208 -27 -14 -93 -12 -113 4
-24 18 -48 78 -48 118 0 114 75 177 159 133z"/>
<path d="M5420 4082 c-6 -2 -10 -74 -10 -179 l0 -174 23 3 c20 3 22 9 25 81
l3 77 64 0 c51 0 65 3 65 15 0 12 -14 15 -65 15 l-65 0 0 60 0 60 65 0 c57 0
65 2 65 19 0 17 -9 20 -80 23 -44 2 -85 2 -90 0z"/>
<path d="M5865 4076 c-107 -47 -130 -236 -38 -316 28 -25 42 -30 88 -30 63 0
102 15 111 42 9 29 -1 32 -40 14 -68 -32 -126 -13 -152 50 -41 99 18 220 102
209 18 -2 45 -11 59 -21 25 -16 25 -16 25 10 0 47 -89 71 -155 42z"/>
<path d="M6154 4076 c-86 -39 -119 -174 -68 -281 22 -46 59 -65 129 -65 69 0
106 18 137 67 19 31 23 51 22 113 0 84 -17 126 -59 154 -36 24 -122 30 -161
12z m142 -60 c46 -53 39 -185 -13 -225 -49 -39 -132 -22 -155 33 -17 41 -17
122 1 165 27 63 123 78 167 27z"/>
<path d="M6780 4080 c-21 -5 -34 -27 -80 -138 -30 -72 -57 -128 -61 -124 -4 4
-25 52 -47 107 -65 162 -60 155 -104 155 l-38 0 0 -175 0 -175 25 0 24 0 3
147 3 146 56 -144 c49 -127 58 -144 78 -144 20 0 30 18 84 150 l62 150 3 -152
c2 -145 4 -153 22 -153 19 0 20 7 20 174 0 186 -1 189 -50 176z"/>
<path d="M8582 4083 c-24 -5 -62 -56 -62 -85 0 -36 24 -67 74 -94 68 -36 86
-53 86 -80 0 -51 -45 -64 -142 -39 -22 6 -28 4 -28 -9 0 -31 45 -49 112 -44
51 4 65 9 85 32 47 55 21 126 -60 167 -82 42 -98 75 -51 106 25 16 30 16 70 1
44 -15 44 -15 44 7 0 35 -57 51 -128 38z"/>
<path d="M8872 4075 c-62 -27 -92 -81 -92 -166 0 -120 48 -179 145 -179 61 0
99 18 103 48 4 25 -3 27 -38 7 -54 -31 -120 -12 -146 43 -22 47 -15 142 12
179 36 48 81 49 167 5 4 -2 7 7 7 21 0 47 -90 71 -158 42z"/>
<path d="M9315 4080 l-80 -5 0 -170 0 -170 98 -3 c92 -3 97 -2 97 18 0 18 -6
20 -75 20 l-76 0 3 63 3 62 63 3 c45 2 62 7 62 17 0 10 -17 15 -62 17 l-63 3
-3 52 -3 52 73 3 c58 2 73 6 76 19 4 22 -17 25 -113 19z"/>
<path d="M9935 4071 c-51 -23 -74 -57 -87 -129 -14 -78 11 -156 61 -189 61
-41 191 -22 191 27 0 23 -6 24 -40 5 -34 -20 -91 -18 -116 3 -33 26 -46 59
-46 116 -1 113 70 172 155 128 37 -20 54 -15 43 14 -7 18 -66 44 -98 44 -13 0
-41 -9 -63 -19z"/>
<path d="M2580 3905 l0 -175 25 0 25 0 0 175 0 175 -25 0 -25 0 0 -175z"/>
<path d="M2720 3905 l0 -176 23 3 c21 3 22 7 27 141 l5 138 75 -138 c71 -130
77 -138 105 -138 l30 0 3 173 2 172 -25 0 -25 0 0 -137 0 -138 -24 45 c-126
234 -120 225 -159 228 l-37 3 0 -176z"/>
<path d="M3292 4063 c2 -14 15 -19 56 -21 l52 -3 0 -155 0 -155 23 3 c22 3 22
6 25 156 l3 152 49 0 c43 0 50 3 50 20 0 19 -7 20 -131 20 -119 0 -130 -2
-127 -17z"/>
<path d="M3602 3908 c3 -171 3 -173 26 -176 l22 -3 0 175 0 176 -25 0 -25 0 2
-172z"/>
<path d="M3702 4063 c2 -14 15 -19 56 -21 l52 -3 0 -155 0 -155 23 3 c22 3 22
6 25 156 l3 152 49 0 c43 0 50 3 50 20 0 19 -7 20 -131 20 -119 0 -130 -2
-127 -17z"/>
<path d="M4012 3948 c3 -144 16 -185 65 -207 35 -16 109 -13 144 5 47 24 59
66 59 209 l0 125 -25 0 -25 0 0 -129 c0 -115 -2 -131 -21 -155 -26 -32 -84
-36 -120 -7 -23 18 -24 26 -27 155 l-4 136 -25 0 -25 0 4 -132z"/>
<path d="M4330 4060 c0 -18 7 -20 55 -20 l55 0 0 -155 c0 -148 1 -155 20 -155
19 0 20 7 20 155 l0 155 55 0 c48 0 55 2 55 20 0 19 -7 20 -130 20 -123 0
-130 -1 -130 -20z"/>
<path d="M4644 4067 c-2 -7 -3 -85 -2 -172 l3 -160 98 -3 c92 -3 97 -2 97 18
0 18 -6 20 -75 20 l-76 0 3 63 3 62 63 3 c45 2 62 7 62 17 0 10 -17 15 -62 17
l-63 3 -3 53 -3 52 69 0 c66 0 82 7 82 36 0 2 -43 4 -95 4 -69 0 -97 -4 -101
-13z"/>
<path d="M6930 3905 c0 -167 1 -175 20 -175 17 0 19 8 22 68 l3 67 59 5 c75 7
106 38 106 106 0 37 -6 51 -29 75 -27 27 -35 29 -105 29 l-76 0 0 -175z m144
119 c23 -22 20 -77 -4 -99 -11 -10 -36 -18 -57 -19 l-38 -1 -2 55 c-2 30 -1
61 2 68 6 18 80 15 99 -4z"/>
<path d="M7212 3943 c2 -111 7 -143 21 -164 23 -34 58 -49 115 -49 108 0 132
41 132 223 l0 127 -25 0 -25 0 0 -130 c0 -126 -1 -132 -25 -155 -30 -31 -83
-33 -116 -6 -23 18 -24 26 -27 155 l-4 136 -25 0 -25 0 4 -137z"/>
<path d="M7530 4060 c0 -18 7 -20 55 -20 l55 0 0 -155 c0 -148 1 -155 20 -155
19 0 20 7 20 155 l0 155 55 0 c48 0 55 2 55 20 0 19 -7 20 -130 20 -123 0
-130 -1 -130 -20z"/>
<path d="M7842 3908 l3 -173 95 0 c82 0 95 2 98 18 3 15 -6 17 -72 17 l-76 0
0 65 0 64 63 3 c77 4 77 21 0 28 l-58 5 -3 53 -3 52 69 0 c51 0 71 4 75 14 9
23 -2 26 -100 26 l-93 0 2 -172z"/>
<path d="M8114 4067 c-2 -7 -3 -85 -2 -172 3 -157 3 -160 26 -163 21 -3 22 -1
22 77 0 78 1 81 23 81 38 0 63 -26 92 -95 23 -54 32 -65 52 -65 12 0 23 4 23
9 0 17 -61 145 -72 152 -7 5 -1 16 18 32 40 35 41 98 1 133 -24 21 -38 24
-103 24 -52 0 -76 -4 -80 -13z m153 -53 c15 -24 15 -29 2 -53 -12 -21 -23 -27
-62 -29 l-47 -3 0 55 0 56 45 0 c37 0 47 -4 62 -26z"/>
<path d="M9092 3908 c3 -171 3 -173 26 -176 l22 -3 0 175 0 176 -25 0 -25 0 2
-172z"/>
<path d="M9510 3905 c0 -168 1 -175 20 -175 19 0 20 7 20 148 l0 147 71 -130
c82 -150 94 -165 126 -165 l23 0 0 175 c0 168 -1 175 -20 175 -19 0 -20 -7
-20 -130 0 -71 -4 -130 -8 -130 -4 0 -18 19 -30 43 -28 54 -89 166 -108 195
-10 15 -24 22 -44 22 l-30 0 0 -175z"/>
<path d="M10162 3908 l3 -173 95 0 c82 0 95 2 98 18 3 15 -6 17 -72 17 l-76 0
0 65 0 65 65 0 c51 0 65 3 65 15 0 12 -14 15 -65 15 l-65 0 0 55 0 55 69 0
c50 0 70 4 74 14 9 23 -2 26 -100 26 l-93 0 2 -172z"/>
</g>
</svg>
